<?xml version="1.0" encoding="utf-8"?>
<!-- Generator: Adobe Illustrator 16.0.1, SVG Export Plug-In . SVG Version: 6.00 Build 0)  -->
<!DOCTYPE svg PUBLIC "-//W3C//DTD SVG 1.1//EN" "http://www.w3.org/Graphics/SVG/1.1/DTD/svg11.dtd">
<svg version="1.1" id="Слой_1" xmlns="http://www.w3.org/2000/svg" xmlns:xlink="http://www.w3.org/1999/xlink" x="0px" y="0px"
viewBox="0 0 461.416 154.378" enable-background="new 0 0 461.416 154.378"
	 xml:space="preserve" preserveAspectRatio="none">
<path fill="#fff" fill-rule="evenodd" clip-rule="evenodd" d="M61.804,26.566c0.496,0.1,0.46,0.068,0.714,0.256
	C62.022,26.722,62.058,26.753,61.804,26.566z M82.62,29.667c0.331,0.119,1.157,0.308,1.429,0.512
	C82.877,30.303,82.56,30.615,82.62,29.667z M90.527,30.323c-0.002,0.08-0.003,0.16-0.005,0.24c-0.417-0.161-0.232-0.051-0.475-0.25
	C90.208,30.315,90.367,30.319,90.527,30.323z M92.186,31.32c0.496,0.1,0.46,0.068,0.715,0.256c-0.16-0.004-0.32-0.007-0.48-0.011
	C92.254,31.593,91.954,31.567,92.186,31.32z M93.38,31.586c-0.001,0.08-0.003,0.16-0.005,0.24c-0.418-0.161-0.232-0.052-0.475-0.25
	C93.06,31.579,93.22,31.583,93.38,31.586z M165.164,20.453c0.16,0.003,0.32,0.007,0.48,0.01c-0.002,0.08-0.003,0.16-0.005,0.24
	c-0.08-0.002-0.16-0.003-0.24-0.005C165.232,20.726,164.932,20.7,165.164,20.453z M165.09,23.812c0.003-0.16,0.007-0.32,0.011-0.48
	c0.188,0.25,0.083,0.068,0.229,0.485C165.25,23.815,165.17,23.813,165.09,23.812z M164.903,21.407
	c0.562,0.15,0.748,0.291,1.189,0.506c-0.243,0.674-0.308,1.013-0.746,1.184c-0.343-0.691-0.757-0.898-1.168-1.466
	C164.678,21.553,164.641,21.583,164.903,21.407z M163.453,21.855c-0.002,0.08-0.003,0.16-0.005,0.24
	c-0.188-0.249-0.083-0.067-0.229-0.485c0.16,0.003,0.32,0.007,0.48,0.01c-0.001,0.08-0.003,0.16-0.005,0.24
	C163.613,21.858,163.533,21.857,163.453,21.855z M162.05,20.144c0.424-0.142,0.234-0.041,0.485-0.229
	c0.444,0.211,0.632,0.345,1.189,0.506c-0.002,0.08-0.004,0.16-0.005,0.24c-0.24-0.005-0.48-0.011-0.72-0.016
	C162.796,20.484,162.252,20.307,162.05,20.144z M161.288,22.047c0.003-0.16,0.007-0.32,0.01-0.479
	C161.558,21.971,161.717,21.833,161.288,22.047z M160.84,20.597c0.31-0.319,0.337-0.417,0.501-0.949
	c0.585,0.324,0.166-0.099,0.469,0.491c-0.454,0.353-0.426,0.657-0.981,0.938C160.833,20.917,160.836,20.757,160.84,20.597z
	 M160.6,20.591c-0.16-0.003-0.32-0.007-0.48-0.01c0.001-0.08,0.003-0.16,0.005-0.24c0.198-0.241,0.086-0.064,0.25-0.475
	C160.551,20.128,160.515,20.097,160.6,20.591z M159.166,20.32c0.005-0.24,0.011-0.48,0.016-0.72c0.174,0.262,0.139,0.23,0.224,0.725
	C159.326,20.323,159.246,20.321,159.166,20.32z M177.198,19.039c0.299,0.133,0.722,0.303,0.949,0.501
	C177.164,19.969,176.704,19.991,177.198,19.039z M178.633,19.31c0.496,0.101,0.46,0.068,0.714,0.256
	C178.851,19.466,178.887,19.498,178.633,19.31z M181.261,19.849c-0.16-0.003-0.32-0.007-0.479-0.011
	c-0.173-0.213-0.296-0.277-0.469-0.49c0.557,0.083,0.592,0.122,0.954,0.261C181.265,19.688,181.263,19.769,181.261,19.849z
	 M181.288,18.649c-0.417-0.161-0.232-0.051-0.475-0.25c0.16,0.003,0.32,0.007,0.48,0.011
	C181.292,18.489,181.29,18.569,181.288,18.649z M182.221,19.87c-0.08-0.001-0.16-0.003-0.24-0.005c0.003-0.16,0.007-0.32,0.01-0.48
	C182.179,19.634,182.076,19.452,182.221,19.87z M183.688,18.702c-0.002,0.08-0.003,0.16-0.005,0.24
	c-0.417-0.161-0.232-0.051-0.475-0.25C183.368,18.695,183.527,18.699,183.688,18.702z M184.109,21.352
	c-0.16-0.003-0.32-0.007-0.48-0.011c0.003-0.16,0.007-0.32,0.011-0.48c0.16,0.004,0.32,0.007,0.48,0.011
	C184.116,21.032,184.112,21.192,184.109,21.352z M184.615,20.163c-0.08-0.002-0.16-0.003-0.24-0.005
	c0.003-0.16,0.007-0.32,0.011-0.48C184.574,19.927,184.47,19.746,184.615,20.163z M185.309,21.378
	c-0.32-0.007-0.64-0.014-0.96-0.021c0.003-0.16,0.007-0.32,0.011-0.48c0.318,0.087,0.636,0.174,0.955,0.261
	C185.312,21.219,185.31,21.299,185.309,21.378z M187.602,26.23c0.858-0.048,0.801-0.008,1.21-0.453
	c1.118,0.104,2.236,0.209,3.354,0.314c-0.003,0.16-0.007,0.32-0.011,0.48c-1.52-0.034-3.04-0.067-4.559-0.101
	C187.598,26.391,187.6,26.311,187.602,26.23z M210.631,26.98c-0.24-0.005-0.48-0.011-0.72-0.016c0.004-0.16,0.007-0.32,0.011-0.479
	c0.238,0.085,0.477,0.17,0.715,0.256C210.634,26.82,210.632,26.9,210.631,26.98z M259.371,26.619c-0.16-0.003-0.32-0.007-0.48-0.01
	c-0.92,0.329-2.877-0.118-3.343-0.794c1.2,0.026,2.4,0.053,3.599,0.08c-0.003,0.16-0.007,0.32-0.01,0.48
	c0.08,0.002,0.16,0.003,0.24,0.005C259.374,26.459,259.373,26.54,259.371,26.619z M314.546,17.519
	c0.16,0.003,0.32,0.007,0.479,0.011c-0.003,0.16-0.007,0.32-0.01,0.479c-0.16-0.003-0.32-0.007-0.48-0.01
	C314.539,17.838,314.542,17.678,314.546,17.519z M320.565,16.691c0.187,0.288,0.177,0.408,0.219,0.965
	c-0.16-0.004-0.32-0.007-0.48-0.011c-0.499-0.318-0.872-0.231-1.674-0.277c0.003-0.16,0.007-0.32,0.011-0.479
	C319.81,16.983,319.995,17.256,320.565,16.691z M461.176,154.378H0.136L0,42.298c0.066-2.978,0.132-5.957,0.198-8.934
	c0.05-2.24-0.238-5.392,0.399-7.193c1.114,0.499,3.277,0.69,3.844-0.155c-1.004-0.096-1.01-0.149-1.424-0.752
	c-0.54,0.228-0.691,0.351-1.45,0.448c-0.233-0.325-0.466-0.65-0.699-0.976c-0.213,0.173-0.277,0.296-0.49,0.47
	c0.032-1.44,0.064-2.879,0.096-4.319c0.706,0.103,0.486,0.492,0.965-0.218c0.065-0.231,0.19-0.087,0.005-0.24
	c-0.279-0.199-0.399-0.194-0.955-0.261c0.012-0.56,0.025-1.12,0.037-1.68c2.167,0.057,2.654,0.69,3.578,1.04
	c0.783,0.296,4.088,0.427,4.554,0.341c0.269-0.049,0.229-0.637,0.97-0.458c0.416,0.1,0.521,0.819,1.184,0.747
	c1.111-0.122,2.823-1.272,4.116-1.589c1.762-0.432,3.287,0.471,4.548,0.581c3.721,0.325,6.478-0.263,9.369-0.272
	c0.231,0.332,0.453,0.444,0.704,0.736c-0.407,0.349-0.248,0.168-0.25,0.475c0.366,0.26,0.975,0.269,1.674,0.277
	c0.007-0.32,0.014-0.64,0.021-0.959c0.756-0.242,2.024-0.211,3.125-0.171c1.677-1.008,5.705,0.1,7.449-0.315
	c1.053-0.25,2.086-0.362,3.375-0.646c0.96,0.021,1.92,0.042,2.879,0.064c0.15-0.052,0.412-0.86,0.736-0.704
	c0.277,0.133,0.584,0.844,0.938,0.981c1.463,0.568,2.766,0.542,4.548,0.581c3.159,0.069,8.136-0.831,10.563-0.006
	c-0.085,0.238-0.17,0.477-0.256,0.714c-0.16-0.003-0.32-0.007-0.48-0.01c-0.279-0.199-0.399-0.194-0.954-0.261
	c-0.092,1.28-0.751,2.546-0.314,3.354c0.1-0.496,0.068-0.46,0.256-0.715c0.506,0.926,0.697,0.081,0.933,1.221
	c-0.332,0.553-0.665,1.105-0.997,1.658c-1.162-0.045-2.275,0.016-3.125,0.171c-0.005,0.24-0.011,0.48-0.016,0.72
	c0.236,0.166,0.473,0.331,0.709,0.496c-0.282,0.503-0.506,0.635-0.747,1.184c1.023,0.113,2.531,0.567,3.114,0.309
	c0.614-0.338,0.373-0.098,0.501-0.949c-0.281-0.214-0.266-0.203-0.469-0.49c0.24,0.005,0.48,0.01,0.72,0.016
	c-0.007,0.32-0.014,0.64-0.021,0.96c0.08,0.001,0.16,0.003,0.24,0.005c-0.001,0.08-0.003,0.16-0.005,0.24
	c1.664,0.083,5.502,1.691,7.188,0.639c-0.72-0.016-1.439-0.032-2.159-0.048c0.003-0.16,0.007-0.32,0.011-0.48
	c3.055-0.514,5.746,0.231,7.427,0.645c1.078,0.265,2.461-0.733,3.141-0.891c0.595-0.138,2.15,0.408,2.629,0.539
	c2.284,0.626,4.973-1.307,6.729-0.331c0.948,0.739,1.163,0.761,3.583,0.799c0.564,0.726,1.683,0.916,2.122,1.728
	c0.188,0.249,0.084,0.067,0.229,0.485c-0.402,0.071-0.803,0.142-1.205,0.213c0.108-0.542,0.226-0.255,0.016-0.72
	c-0.25,0.188-0.068,0.084-0.485,0.229c0.083-0.158,0.167-0.316,0.25-0.475c-0.08-0.001-0.16-0.003-0.24-0.005
	c-0.441,0.436-1.306,0.543-2.175,0.672c0.003-0.16,0.007-0.32,0.01-0.479c0.424-0.142,0.234-0.041,0.485-0.229
	c-0.762-0.138-0.696-0.225-1.189-0.506c-0.106,0.626,0.171,0.318-0.491,0.469c-0.556,0.547-0.939,0.29-2.165,0.192
	c-0.106,0.605,0.131,0.382-0.73,0.464c-0.467-0.757-1.435-0.479-1.893-1.243c-0.188-0.249-0.083-0.067-0.229-0.485
	c0.716,0.259,1.465,0.532,1.925-0.197c-0.465-0.366,0.142-0.339-0.709-0.496c-0.065,0.863,0.345,0.505-0.496,0.709
	c-0.538-0.645-0.81-0.436-1.674-0.277c-0.002,0.08-0.004,0.16-0.005,0.24c0.359,0.253,0.464,0.37,0.704,0.736
	c-0.24-0.005-0.479-0.011-0.72-0.016c-0.553-0.506-1.748-0.879-2.373-1.253c-0.004,0.16-0.007,0.32-0.011,0.48
	c0.417,0.161,0.232,0.051,0.475,0.25c-0.843,0.078-1.186,0.275-1.93,0.437c-0.002,0.08-0.003,0.16-0.005,0.24
	c0.774,0.216,0.369-0.109,0.709,0.496c0.08,0.002,0.16,0.004,0.24,0.005c-0.002,0.08-0.004,0.16-0.005,0.24
	c-0.48-0.011-0.96-0.021-1.44-0.032c-0.755,0.399-8.309-1.028-9.576-1.172c-0.003,0.16-0.007,0.32-0.011,0.479
	c0.653,0.013,1.103,0.034,1.435,0.272c-1.2-0.073-2.252-0.077-2.89,0.416c1.715,0.033,5.569-0.247,6.479,0.144
	c1.31,0.562,3.317,2.932,4.991,2.271c1.658-0.434,2.008-0.701,2.682-1.861c1.404,0.583,2.629,1.459,4.042,1.77l7.219-0.8
	c0.003-0.16,0.007-0.32,0.011-0.48c2.006-0.864,2.988,0.904,4.111-1.349c-0.08-0.002-0.16-0.003-0.24-0.005
	c0.001-0.08,0.003-0.16,0.005-0.24c-0.08-0.002-0.16-0.004-0.24-0.005c-0.005,0.24-0.011,0.48-0.016,0.72
	c-1-0.005-1.637-0.091-2.149-0.528c0.578-0.189,0.397-0.087,0.73-0.464c-1.074,0.008-1.842-0.067-2.389-0.533
	c-0.188-0.249-0.083-0.067-0.229-0.485c0.16,0.003,0.32,0.007,0.479,0.01c0.306,0.218,0.587,0.228,1.195,0.267
	c0.318-0.433,0.481-0.4,0.741-0.944c-0.08-0.001-0.16-0.003-0.24-0.005c-0.989,0.598-4.14,0.339-5.529,0.358
	c0.005-0.24,0.011-0.48,0.016-0.72c0.626,0.052,0.813,0.121,1.195,0.266c0.1-0.496,0.068-0.46,0.256-0.714
	c0.809,0.804,3.788-0.053,4.553,0.341c0.36,0.277,0.262,0.483,1.669,0.517c0.983-1.825,6.578-0.405,6.975-0.565
	c0.507-0.206,0.384-0.046,0.72,0.016c0.986,0.183,1.09-0.118,1.919,0.042c0.087-0.318,0.174-0.636,0.261-0.954
	c0.08,0.001,0.16,0.003,0.24,0.005c0.019,1.012,0.13,1.302-0.042,1.92c0.72,0.016,1.44,0.032,2.16,0.048
	c0.739,0.488,3.193,0.391,4.068,0.57c0.035,0.56,0.031,0.679,0.219,0.965c1.875-1.144,4.74,0.419,6.713,0.389
	c0.121,0.367,0.153,0.41,0.219,0.965c0,0-0.955,0.084-0.485,0.229c0.08,0.002,0.16,0.003,0.24,0.005
	c0.455,0.221,1.267,0.004,1.919,0.042c0.003-0.16,0.007-0.32,0.011-0.48c-0.482-0.334-0.994-0.813-1.413-1.231
	c0.648-0.2,0.626-0.233,0.976-0.699c-0.964-0.347-2.102-0.371-2.368-1.493c0.16,0.003,0.32,0.007,0.48,0.011
	c1.063-0.661,3.422-0.433,5.049-0.368c0.089-0.398,0.178-0.796,0.267-1.195c0.627,0.016,0.205,0.316,0.725-0.224
	c0.79,0.443,1.66,0.394,1.909,0.522c0.418,0.217,0.512,1.033,1.173,1.227c0.989,0.29,2.094-0.707,3.599,0.08
	c0.655,0.342,2.183,2.241,3.087,1.509c0.08,0.002,0.16,0.003,0.24,0.005c-0.334-0.501-0.366-0.32-0.453-1.21
	c0.08,0.002,0.16,0.003,0.24,0.005c-0.003,0.16-0.007,0.32-0.01,0.48c1.013,0.614,0.559,1.163,2.373,1.252
	c1.119,0.687,2.905-0.448,4.314,0.336c1.125,0.626,1.838,1.359,3.562,1.759c0.03-0.837,1.784-0.541,1.973-2.357
	c1.349,0.284,1.252,0.722,2.618,1.018c0.007-0.32,0.014-0.64,0.021-0.96c-0.678-0.187-0.832-0.278-1.184-0.746
	c1.148-0.03,4.886,0.265,5.54-0.838c-0.351-0.38-0.177-0.445-0.704-0.735c0,0-2.903-1.889-3.072-2.229
	c3.296-0.251,6.135-0.401,9.155-1.478c0.08,0.002,0.16,0.004,0.24,0.005c0.8,0.515,2.298,0.541,3.583,0.8
	c1.764,0.355,4.467-0.173,6.244-0.102c0.003-0.16,0.007-0.32,0.01-0.48c-1.459-0.964-1.624-2.588-4.021-2.729
	c-0.285-0.208-0.218-0.091-0.714-0.256c-0.075-0.242-0.149-0.483-0.224-0.725c0.186-0.253,0.149-0.224,0.256-0.714
	c-1.389,0.14-2.176,0.046-3.103-0.789c0.5-0.078,0.463-0.048,0.725-0.224c-1.108-0.516-2.22-0.958-3.573-1.279
	c-0.461,0.636-0.585,0.674-1.695,0.683c-1.602-1.455-3.648-0.832-5.743-0.847c-1.174-0.009-2.778-0.857-3.578-1.04
	c-0.406-0.093-0.638,0.549-1.21,0.453c-1.721-0.287-2.985-0.588-4.543-0.821c0.003-0.16,0.007-0.32,0.01-0.48
	c2.715-0.445,4.704-0.07,7.438,0.165c1.266,0.109,2.194-0.43,3.85-0.395c1.766,0.038,3.225,0.312,4.559,0.101
	c0.827-0.13,1.901,0.659,2.628,0.538c0.225-0.037,0.72-0.568,0.976-0.698c0.3,1.169,0.942,1.839,2.357,1.973
	c1.179-1.628,5.094,0.571,6.276-1.542c-0.298-0.163-0.491-0.272-0.709-0.496c1.983,0,3.633,0.199,4.789,0.586
	c-0.004,0.16-0.007,0.32-0.011,0.479c-0.64-0.014-1.28-0.028-1.919-0.042c0.003-0.16,0.007-0.32,0.01-0.48
	c-0.16-0.004-0.32-0.007-0.479-0.011c-0.002,0.08-0.004,0.16-0.005,0.24c-0.08-0.001-0.16-0.003-0.24-0.005
	c-0.003,0.16-0.007,0.32-0.01,0.48c0.433,0.318,0.4,0.481,0.944,0.741c1.852,1.208,7.324,0.163,9.123-0.038
	c0.177-0.02,1.071,0.476,1.189,0.506c0.788,0.203,6.939,0.164,6.958,0.154c0.108-0.056,0.393-0.889,0.501-0.949
	c1.761-0.041,3.522-0.082,5.284-0.123c-0.001,0.08-0.003,0.16-0.005,0.24c0.08,0.002,0.16,0.003,0.24,0.005
	c-0.003,0.16-0.007,0.32-0.011,0.48c-0.652-0.016-1.103-0.015-1.445,0.208c0.16,0.003,0.32,0.007,0.48,0.011
	c1.607,0.925,2.84-0.667,3.802,1.765c-1.04-0.023-2.08-0.046-3.119-0.069c-2.096-1.092-10.111,0.805-11.757-0.26
	c0.599-0.297,0.161,0.106,0.491-0.469c-0.56-0.012-1.12-0.025-1.68-0.037c-0.467-0.315-7.978-0.25-8.403,0.054
	c0.281,0.215,0.266,0.204,0.469,0.491c-0.938-0.069-0.631-0.105-1.439-0.032c-0.002,0.08-0.003,0.16-0.005,0.24
	c0.08,0.002,0.16,0.003,0.24,0.005c0.841,0.471,1.307-0.394,1.659,0.997c-0.337-0.021-2.254-0.081-3.125,0.171
	c0.231,0.332,0.453,0.443,0.704,0.736c-0.56-0.013-1.12-0.025-1.68-0.038c0.002-0.08,0.004-0.16,0.005-0.24
	c0.291-0.202,0.274-0.191,0.491-0.469c-0.585-0.324-0.166,0.099-0.469-0.491c0.16,0.004,0.32,0.007,0.479,0.011
	c0.176-0.065,0.694-0.007,1.44,0.032c0.009-0.4,0.018-0.8,0.026-1.2c-1.093-0.713-2.533-0.815-4.543-0.82
	c-1.111-0.797-2.379-0.611-3.828-0.565c-0.143,0.381-0.205,0.572-0.267,1.194c0.188,0.249,0.083,0.067,0.229,0.485
	c1.745,0.185,4.79,0.213,5.978,1.092c-0.16-0.003-0.32-0.007-0.48-0.011c-0.377,0.191-0.971-0.265-1.45,0.448
	c0.585,0.306,0.361,0.433,0.944,0.741c0.826,0.565,3.269,0.344,4.554,0.341c0.015-0.759-0.399-0.332,0.256-0.715
	c0.264,0.811,1.373,1.084,2.149,0.528c-0.653-0.013-1.103-0.034-1.435-0.271c0.08,0.001,0.16,0.003,0.24,0.005
	c0.183-0.205,0.309-0.264,0.491-0.469c0.515,0.192,1.324,0.387,1.909,0.522c-0.001,0.08-0.003,0.16-0.005,0.24
	c-0.861,0.081-0.602-0.126-0.971,0.459c0.56,0.012,1.12,0.024,1.68,0.037c0.807,0.512,2.416,0.111,3.594,0.319
	c1.676,0.297,4.059,0.85,5.972,1.333c-0.002,0.08-0.004,0.16-0.005,0.24c-0.24-0.005-0.48-0.011-0.72-0.016
	c-0.384-0.25-0.905-0.354-1.669-0.517c0.075,0.242,0.149,0.483,0.224,0.725c-0.401,0.071-0.803,0.143-1.205,0.214
	c0.007-0.32,0.014-0.64,0.021-0.96c-2.581-0.045-3.087-0.041-5.759-0.127c0.045,0.768,0.222,0.771-0.026,1.2
	c-1.608,1.098-4.527-0.209-6.015,0.587c-0.075-0.242-0.149-0.483-0.224-0.725c-0.388,0.125-0.581,0.179-1.205,0.213
	c-0.002,0.08-0.004,0.16-0.005,0.24c0.08,0.002,0.16,0.003,0.24,0.005c1.387,0.943,3.836,0.477,5.513,0.362
	c0.966-0.066,4.714,0.724,6.217,1.098c1.155,0.287,1.27-0.384,2.154,0.288c0.175,0.261,0.139,0.23,0.224,0.725
	c-0.37,0.236-0.48,0.349-0.736,0.704c2,0.044,3.999,0.088,5.999,0.133c0.634,1.122,1.209,1.304,3.093,1.269
	c0.98-0.588,10.966-0.16,11.768-0.22c0.002-0.08,0.003-0.16,0.005-0.24c-0.831-0.083-1.338-0.156-1.664-0.757
	c2.39,0.131,8.571,0.22,9.859-0.742c0.08,0.001,0.16,0.003,0.24,0.005c0.002-0.08,0.004-0.16,0.005-0.24
	c-0.08-0.002-0.16-0.003-0.24-0.005c0.001-0.08,0.003-0.16,0.005-0.24c-0.583,0.069-0.213,0.074-0.959-0.021
	c0.11-0.702,0.399-0.292-0.224-0.725c-0.406,0.233-1.624,0.14-1.919-0.042c-0.08-0.001-0.16-0.003-0.24-0.005
	c0.001-0.08,0.003-0.16,0.005-0.24c0.424-0.142,0.234-0.041,0.485-0.229c-0.417-0.161-0.232-0.051-0.475-0.25
	c-0.424,0.142-0.234,0.041-0.485,0.229c-0.186,0.253-0.149,0.224-0.256,0.714c-3.994-0.525-5.171-0.157-8.877-0.196
	c0.003-0.16,0.007-0.32,0.01-0.48c3.861,0.017,8.403-0.233,10.819-0.721c1.525-0.308,3.415,0.671,4.554,0.341
	c1.133-0.329,4.746-1.266,6.494-0.577c1.146,0.452,1.143,0.933,2.373,1.253c0.284-0.683,0.051-0.441,0.736-0.704
	c0.614,0.78,2.262,0.847,3.807,1.524c-0.004,0.16-0.007,0.32-0.011,0.48c-0.16-0.003-0.32-0.007-0.48-0.011
	c-0.837-0.636-1.457-0.449-2.394-0.293c-0.002,0.08-0.003,0.16-0.005,0.24c0.56,0.012,1.12,0.024,1.68,0.037
	c0.861,0.629,2.608,0.125,3.364-0.166c-0.019,0.758-0.414,0.313,0.224,0.725c0.344,0.181,3.168,0.496,3.839,0.085
	c0.502-0.273,0.455-0.154,0.735-0.704c-0.479-0.011-0.959-0.021-1.439-0.032c0.001-0.08,0.003-0.16,0.005-0.24
	c0.16,0.004,0.32,0.007,0.48,0.011c0.448-0.263,0.45-0.037,0.965-0.219c0.002-0.08,0.003-0.16,0.005-0.24
	c-1.04-0.023-2.08-0.046-3.119-0.069c0.005-0.24,0.011-0.48,0.016-0.72c3.834-0.116,8.797,0.417,14.151,0.554
	c-0.003,0.16-0.007,0.32-0.011,0.479c-0.711,0.07-6.386,1.214-7.934,0.545c-0.617-0.267-0.68-0.792-1.659-0.997
	c-0.214,0.281-0.203,0.265-0.49,0.469c0.123,0.427,0.063,0.131,0.475,0.25c0,0-0.651,0.578-0.736,0.704
	c0.72,0.016,1.439,0.032,2.159,0.048c0.961,0.557,4.313-0.371,5.764-0.112c3.211,0.571,11.477,0.662,13.933-0.412
	c0.001-0.08,0.003-0.16,0.005-0.24c-0.774-0.216-0.369,0.109-0.709-0.496c0.454-0.146,0.944-0.208,1.685-0.203
	c0.261-0.175,0.23-0.139,0.725-0.224c0.007-0.32,0.014-0.64,0.021-0.959c-0.16-0.004-0.32-0.007-0.479-0.011
	c-0.215,0.281-0.204,0.266-0.491,0.469c-0.081-0.861,0.126-0.601-0.458-0.97c-0.215,0.281-0.204,0.265-0.491,0.469
	c-0.288-0.784-0.197-0.636-1.184-0.747c-0.498,0.511-1.23,1.145-1.952,1.397c0.136-0.526,0.281-0.47,0.021-0.959
	c-0.494,0.663-0.851-0.021-1.69,0.443c0.281,0.214,0.266,0.203,0.469,0.49c-0.16-0.003-0.32-0.007-0.479-0.011
	c0.001-0.08,0.003-0.16,0.005-0.24c-0.516-0.234-0.843-0.593-1.178-0.986c0.198-0.241,0.086-0.064,0.25-0.475
	c1.771,0.301,11.639,0.16,12.978-0.673c0.283-0.437,0.057-0.448,0.261-0.955c1.307,0.614,3.161,0.343,5.273,0.357
	c0.005-0.24,0.011-0.48,0.016-0.72c1.511-0.267,1.628-1.127,2.927-2.096c0.003-0.16,0.007-0.32,0.01-0.48
	c-0.411-0.153-0.751-0.23-1.434-0.272c-0.004,0.16-0.007,0.32-0.011,0.48c0.308,0.424,0.406,0.395,0.224,0.725
	c-0.002,0.08-0.004,0.16-0.005,0.24c-0.238-0.085-0.477-0.17-0.715-0.256c0.009-0.4,0.018-0.8,0.027-1.2
	c-0.481-0.063-0.743-0.106-0.995-0.117c-0.028-0.051-0.055-0.044-0.08-0.001c-0.224-0.003-0.456,0.018-0.844,0.075
	c0.212,0.265-0.02,0.02,0.234,0.246c0.241,0.198,0.064,0.086,0.475,0.25c0,0,0.059-0.44,0.135-0.571c0.026,0,0.053,0,0.08,0.001
	c0.012,0.021,0.023,0.05,0.035,0.096c-0.001,0.08-0.003,0.16-0.005,0.24c0.281,0.281,0.495,0.622,0.699,0.976
	c-0.16-0.004-0.32-0.007-0.48-0.011c-0.204-0.095-0.779,0.249-1.439-0.032c-0.075-0.241-0.149-0.483-0.224-0.725
	c-0.16-0.004-0.32-0.007-0.48-0.011c-0.003,0.16-0.007,0.32-0.011,0.479c-0.16-0.003-0.32-0.007-0.479-0.01
	c-0.075-0.242-0.149-0.484-0.224-0.725c0.936,0.027,1.077,0.143,1.45-0.448c0.065-0.231,0.19-0.087,0.005-0.24
	c-1.732-1.047-4.301,0.239-5.247-1.557c-0.08-0.002-0.16-0.003-0.24-0.005c0.002-0.08,0.003-0.16,0.005-0.24
	c0.56,0.012,1.12,0.025,1.68,0.037c0.383,0.169,1.765,0.61,2.624,0.778c0.003-0.16,0.007-0.32,0.01-0.48
	c-0.54-0.252-0.662-0.194-0.944-0.741c2.129-0.125,3.471-1.405,5.545-1.078c0.198-0.78,0.843-1.36,1.477-1.647
	c1.479,0.863,7.148-0.188,8.649-0.289c0.212,0.265-0.019,0.02,0.234,0.245c-0.11,0.702-0.399,0.292,0.224,0.725
	c-0.002,0.08-0.003,0.16-0.005,0.24c0.495-0.081,1.111-0.204,1.45-0.448c-0.382-0.333-0.266-0.16-0.464-0.73
	c0.4,0.009,0.8,0.018,1.2,0.026c1.235,0.632,4.556,0.877,5.753,0.368c0.305,0.199,0.458,0.641,0.944,0.741
	c0.658-0.261,3.057-0.44,3.13-0.411c0.337,0.452,0.157,0.648,0.698,0.976c0.488-0.198,0.776,0.021,1.68,0.037
	c0.357-0.573,0.618-0.849,1.227-1.173c-0.004,0.16-0.007,0.32-0.011,0.48c-0.31,0.319-0.337,0.417-0.501,0.949
	c0.16,0.003,0.32,0.007,0.48,0.011c0.299-0.118,2.652,0.03,3.109,0.549c0.625-0.545,6.97-0.796,8.894-0.523
	c-0.087,0.318-0.174,0.637-0.261,0.955c0.653,0.013,1.103,0.034,1.435,0.272c-0.16-0.004-0.32-0.007-0.48-0.011
	c-0.432,0.282-0.42-0.006-0.725,0.224c-0.281,0.443-0.022,0.847-0.512,1.429c-0.225-1.134-0.972-1.473-2.368-1.493
	c-0.312,0.173-1.292,0.204-1.914-0.283c0.578-0.189,0.396-0.087,0.73-0.464c-0.08-0.001-0.16-0.003-0.24-0.005
	c0.002-0.08,0.003-0.16,0.005-0.24c-0.242,0.075-0.483,0.149-0.725,0.224c-0.024,0.604-0.059,0.264-0.267,1.194
	c0.82,0.646,0.366,1.032,0.683,1.696c1.62-0.794,9.782,0.504,10.542,0.953c0.075,0.242,0.149,0.483,0.224,0.726
	c0.606,0.26,1.518-0.198,2.645-0.182c0.214-0.281,0.204-0.266,0.491-0.469c-0.125-0.388-0.179-0.581-0.213-1.205
	c-0.558-0.059-0.677-0.061-0.955-0.261c0.796-0.143,0.566-0.226,1.21-0.453c0.149,1.418,0.502,2.815,1.115,3.865
	c-2.028-0.043-3.767,0.279-5.06,0.849c0.142,0.424,0.041,0.234,0.229,0.485c-0.001,0.08-0.003,0.16-0.005,0.24
	c3.548-0.892,6.397-1.043,9.864-0.981c0.004-0.16,0.007-0.32,0.011-0.48c-0.418-0.24-0.396-0.311-0.949-0.501
	c-0.021,0.023-0.331,0.686-0.49,0.47c0.001-0.08,0.003-0.16,0.005-0.24c-0.867-0.611-1.665-1.142-2.112-2.207
	c-0.429,0.221-0.41,0.292-0.97,0.458c-0.142-0.424-0.042-0.234-0.229-0.485c0.224-0.255-0.018-0.021,0.245-0.234
	c0.508-0.332,0.858-0.132,1.216-0.693c0.186-0.253,0.149-0.224,0.256-0.714c-2.816-0.172-5.553-2.497-7.396-2.084
	c-0.002,0.08-0.004,0.16-0.005,0.24c0.4,0.009,0.8,0.018,1.2,0.027c-0.101,0.496-0.068,0.46-0.256,0.714
	c-0.52-0.225-2.296,0.058-3.125,0.171c-0.003,0.16-0.007,0.32-0.011,0.48c0.358,0.323,0.497,0.466,0.698,0.976
	c-0.16-0.003-0.32-0.007-0.479-0.011c-0.262,0.175-0.23,0.14-0.725,0.224c0.188-1.558-0.039-2.636-1.861-2.682
	c0.002-0.08,0.003-0.16,0.005-0.24c0.198-0.24,0.086-0.063,0.25-0.475c2.362,0.018,5.517,0.365,7.22-0.8
	c-1.026-0.128-1.128-0.134-2.16-0.048c-0.476-0.881-0.427-0.691-1.168-1.466c0.16,0.003,0.32,0.007,0.48,0.01
	c0.659-0.391,5.075-0.159,7.684-0.07c-0.002,0.08-0.003,0.16-0.005,0.24c-0.262,0.322-0.518,0.877-0.747,1.184
	c0.16,0.003,0.32,0.007,0.48,0.011c0.755-0.482,3.883-0.243,4.324-0.145c-0.366-0.447-0.204-0.339-0.949-0.501
	c0.009-0.4,0.018-0.8,0.027-1.2c0.16,0.003,0.32,0.007,0.48,0.011c0.358,0.813,0.724,0.626,0.922,1.701
	c0.32,0.007,0.64,0.014,0.96,0.021c0.555-1.104-0.012-1.392,1.711-1.402c1.798-0.998,7.686,0.491,10.813-0.48
	c0.002-0.08,0.004-0.16,0.005-0.24c-0.557-0.059-0.677-0.061-0.955-0.261c0.08,0.002,0.16,0.003,0.24,0.005
	c0.377-0.244,0.986-0.226,1.685-0.203c-0.001,0.08-0.003,0.16-0.005,0.24c-0.5,0.079-0.463,0.048-0.725,0.224
	c0.64,1.073-0.235,0.847-0.038,1.68c0.34,0.259,0.933,0.395,1.429,0.512c-0.059,0.754-0.131,0.357-0.021,0.959
	c0.852-0.231,1.338-0.444,2.65-0.421c-0.007,0.32-0.014,0.64-0.021,0.96c-0.479-0.011-0.959-0.021-1.439-0.032
	c-0.002,0.08-0.003,0.16-0.005,0.24c0.08,0.002,0.16,0.003,0.24,0.005c0.241,0.198,0.064,0.086,0.475,0.25
	c0.947-0.583,2.231-0.517,3.146-1.131c-0.32-0.007-0.64-0.014-0.96-0.021c0.011-0.683,0.191-0.09-0.224-0.725
	c0.531,0.07,1.658-0.092,1.919,0.042c0.164,0.084,0.379,0.857,0.698,0.976c3.042-0.093,6.086-0.185,9.128-0.278
	c-0.058-0.561-0.095-0.597-0.219-0.965c0.16,0.004,0.32,0.007,0.48,0.011c0.002-0.08,0.003-0.16,0.005-0.24
	c0.08,0.001,0.16,0.003,0.24,0.005c-0.001,0.08-0.003,0.16-0.005,0.24c0.08,0.002,0.16,0.003,0.24,0.005
	c-0.349,0.563-0.411,0.13-0.256,0.714c0.366,0.26,0.975,0.269,1.674,0.277c0.56-0.557,0.349-0.348,1.205-0.213
	c0.05-0.954,0.042-0.748,1.456-0.688c0.597-0.309,1.794,0.455,2.41-0.427c-0.72-0.016-1.44-0.032-2.16-0.048
	c-0.757-0.705-1.897-0.346-3.354-0.314c0.002-0.08,0.004-0.16,0.005-0.24c0.08,0.001,0.16,0.003,0.24,0.005
	c0.908-0.554,1.75-0.234,2.191-1.392c0.08,0.002,0.16,0.003,0.24,0.005c0.002-0.08,0.003-0.16,0.005-0.24
	c-0.24-0.005-0.48-0.011-0.72-0.016c-0.001,0.08-0.003,0.16-0.005,0.24c-0.08-0.001-0.16-0.003-0.24-0.005
	c0.002-0.08,0.004-0.16,0.005-0.24c-0.8,0.661-0.167,0.851-1.461,0.928c0.059-0.754,0.132-0.357,0.021-0.959
	c-0.926,0.195-2.433-0.474-2.848-1.503c0.08,0.002,0.16,0.003,0.24,0.005c0.001-0.08,0.003-0.16,0.005-0.24
	c0.936,0.028,1.077,0.144,1.451-0.448c-0.4-0.009-0.8-0.018-1.2-0.026c-0.238-0.172-0.953-0.33-1.189-0.507
	c-0.08-0.001-0.16-0.003-0.24-0.005c0.002-0.08,0.003-0.16,0.005-0.24c0.56,0.013,1.12,0.025,1.68,0.037
	c1.052,0.867,3.443,0.514,4.767,1.546c0.985-0.144,2.684-1.128,3.85-0.395c-0.608,0.004-0.893,0.009-1.205,0.213
	c0.08,0.002,0.16,0.004,0.24,0.005c1.001,0.812,2.555-0.034,3.594,0.32c0.576,0.196,0.248,0.715,1.904,0.762
	c0.081-0.623,0.006-0.472,1.21-0.453c-0.004,0.16-0.007,0.32-0.011,0.48c-0.56,0.034-0.679,0.031-0.965,0.219
	c0.16,0.003,0.32,0.007,0.48,0.01c0.585,0.408,2.13,0.317,3.114,0.309c0.002-0.08,0.004-0.16,0.005-0.24
	c-0.81-0.375-1.97-0.95-2.362-1.733c0.64,0.014,1.279,0.028,1.919,0.042c0.469,0.277,1.332,0.202,2.154,0.288
	c0.402,0.687,1.556,2.289,1.867,2.441c0.77,0.726,2.274,0.533,3.349,0.555c0.136-0.361,0.171-0.403,0.261-0.955
	c-0.08-0.002-0.16-0.003-0.24-0.005c0.002-0.08,0.003-0.16,0.005-0.24c-1.126-0.055-3.251-0.099-3.583-0.8
	c2.457-0.082,8.602-0.693,9.315,2.127c-0.37,0.237-0.48,0.349-0.736,0.704c2.49-0.007,10.869,1.174,11.96,1.945
	c-0.08-0.001-0.16-0.003-0.24-0.005c-0.002,0.08-0.004,0.16-0.005,0.24c-0.158-0.083-0.316-0.167-0.475-0.25
	c-0.002,0.08-0.003,0.16-0.005,0.24c0.376,0.681,0.07,1.53,0.667,2.416c0.609,0.512,1.314,1.02,1.887,1.482
	c-0.001,0.08-0.003,0.16-0.005,0.24c0.814,0.464,1.755,0.063,2.389,0.533c-0.08-0.002-0.16-0.003-0.24-0.005
	c-0.001,0.08-0.003,0.16-0.005,0.24c-1.552,0.336-1.743-0.682-3.578-1.04c-0.003,0.16-0.007,0.32-0.011,0.48
	c0.16,0.003,0.32,0.007,0.48,0.01c0.364,0.367,0.437,0.196,0.704,0.736c-0.673,0.941,0.089,1.929,0.421,2.65
	c0.08,0.002,0.16,0.004,0.24,0.005c0.25-1.067,0.621-0.784,0.997-1.658c0.188,0.249,0.083,0.067,0.229,0.485
	c0.563,0.439,0.115,0.454,0.464,0.73c0.294-0.124,1.157-0.107,1.69-0.443c0.079,0.5,0.048,0.463,0.224,0.725
	c0.216-0.774-0.109-0.369,0.496-0.709c0.297,0.599-0.107,0.161,0.469,0.49c-0.065-0.642-0.131-1.283-0.197-1.925
	c0.702,0.11,0.292,0.399,0.725-0.224c-0.446-0.167-0.934-0.249-1.674-0.277c-0.253-0.186-0.224-0.149-0.714-0.256
	c0.007-0.32,0.014-0.64,0.021-0.96c1.189,0.231,1.11,0.386,2.395,0.293c0.1-0.496,0.068-0.46,0.256-0.714
	c0.226,0.665,0.333,0.534,0.698,0.976c0.512-0.097,0.88-0.196,1.21-0.453c0.16-0.203,0.337-0.748,0.501-0.949
	c0.386,0.28,1.591,0.621,2.154,0.288c-0.896-0.437-0.519-0.149-0.453-1.21c-0.24-0.005-0.48-0.01-0.72-0.016
	c-0.125-0.568-0.257-0.76-0.453-1.21c0.24,0.005,0.48,0.011,0.72,0.016c1.016,0.667,2.931,0.022,3.845-0.155
	c0.463-0.09,1.887,0.637,2.383,0.773c1.601-0.045,3.203-0.089,4.804-0.134c1.103,0.27,3.204,0.792,5.743,0.847
	c1.12,0.025,2.239,0.05,3.359,0.074c0.075,0.242,0.149,0.483,0.224,0.725c0.3,0.16,0.044-0.181,0.245-0.234
	c0.162-0.077,0.324-0.153,0.485-0.229c0.075,0.242,0.149,0.483,0.224,0.725c0.783,0.389,3.896-0.55,5.524-0.118
	c0.638,0.17,1.309,0.668,2.149,0.528c1.04-0.174,1.896-1.115,2.911-1.376c2.061-0.531,3.975,0.793,5.508,0.602
	c2.636-0.328,6.287-0.625,9.123-0.038c-0.041,0.972-0.405,0.564,0.219,0.965c0.253,0.186,0.714,0.256,0.714,0.256L461.176,154.378z
	 M61.403,22.956c0.168,0.14,0.002,0.346,0.475,0.25c0.001-0.08,0.003-0.16,0.005-0.24c0.217-0.306,0.228-0.587,0.267-1.194
	c-0.24-0.005-0.48-0.011-0.72-0.016C61.393,22.5,61.267,22.719,61.403,22.956z M59.958,23.164c0.55-0.228,0.669-0.164,0.976-0.698
	c-0.188-0.25-0.084-0.068-0.229-0.485c-0.24-0.005-0.48-0.011-0.72-0.016c-0.161,0.417-0.051,0.232-0.25,0.475
	C59.809,22.681,59.884,22.922,59.958,23.164z M86.944,29.523c0.16,0.004,0.32,0.007,0.479,0.011c0.58,0.411,1.257,0.176,1.92,0.042
	c0.001-0.08,0.003-0.16,0.005-0.24c-1.498-0.135-1.172-0.605-2.624-0.778c0.203,0.16,0.747,0.337,0.949,0.501
	C86.892,29.241,87.311,28.934,86.944,29.523z M77.576,29.796c0.443,0.282,1.201,0.158,1.685-0.203
	c-0.496-0.101-0.46-0.068-0.714-0.256c0.502-0.273,0.455-0.154,0.736-0.704c-0.24-0.005-0.48-0.011-0.72-0.016
	c-0.174,0.132-0.018,0.346-0.485,0.229c0.001-0.08,0.003-0.16,0.005-0.24c-0.08-0.002-0.16-0.004-0.24-0.005
	c-0.426,0.43-0.862,0.655-1.226,1.173C76.936,29.782,77.256,29.789,77.576,29.796z M172.714,15.578
	c0.003-0.16,0.007-0.32,0.011-0.479c-0.08-0.002-0.16-0.004-0.24-0.005c-0.003,0.16-0.007,0.32-0.01,0.48
	C172.554,15.575,172.634,15.577,172.714,15.578z M166.859,19.77c0.079,0.63-0.185,0.311,0.47,0.491
	c0.001-0.08,0.003-0.16,0.005-0.24C167.176,19.937,167.018,19.854,166.859,19.77z M177.337,23.603
	c0.003-0.16,0.007-0.32,0.011-0.479c-0.88-0.02-1.76-0.039-2.64-0.059c-0.253-0.186-0.224-0.149-0.714-0.256
	c-0.003,0.16-0.007,0.32-0.011,0.48C174.987,23.426,176.052,23.573,177.337,23.603z M312.429,15.551
	c-0.24-0.005-0.48-0.011-0.72-0.016C312.117,15.756,312.011,15.755,312.429,15.551z M311.218,16.004
	c0.003-0.16,0.007-0.32,0.011-0.48c-0.627,0.136-0.459,0.102-1.2-0.026c-0.003,0.16-0.007,0.32-0.011,0.48
	C310.418,15.987,310.818,15.996,311.218,16.004z M318.192,15.439c0.241,0.198,0.064,0.086,0.475,0.25
	C318.426,15.491,318.604,15.603,318.192,15.439z M319.691,12.831c-0.004,0.16-0.007,0.32-0.011,0.48
	c0.16,0.003,0.32,0.007,0.479,0.011c0.004-0.16,0.007-0.32,0.011-0.48C320.011,12.838,319.851,12.835,319.691,12.831z
	 M323.05,12.906c0.075,0.242,0.149,0.483,0.224,0.725c-0.627,0.025-0.817,0.085-1.205,0.213c0.142,0.424,0.041,0.234,0.229,0.485
	c-0.002,0.08-0.004,0.16-0.005,0.24c0.599-0.116,2.553-0.282,3.135-0.651C324.28,13.595,324.336,13.105,323.05,12.906z
	 M327.23,19.24c-0.239,0.186-0.666,0.333-0.97,0.458c-0.002,0.08-0.003,0.16-0.005,0.24c0.48,0.01,0.96,0.021,1.44,0.032
	c0.003-0.16,0.007-0.32,0.01-0.48C327.547,19.407,327.389,19.323,327.23,19.24z M366.037,12.177c0.241,0.198,0.064,0.086,0.475,0.25
	C366.271,12.229,366.447,12.341,366.037,12.177z M445.25,23.293c-0.579,0.077-0.373,0.143-0.96-0.021
	c-0.24,0.418-0.311,0.396-0.501,0.949c0.32,0.007,0.64,0.014,0.959,0.021c0.375-0.162,0.033-0.03,0.72,0.016
	c0.005-0.24,0.01-0.48,0.016-0.72c-0.08-0.002-0.16-0.003-0.24-0.005C445.246,23.453,445.248,23.373,445.25,23.293z M443.762,25.421
	c-0.003,0.16-0.007,0.32-0.01,0.479c0.08,0.002,0.16,0.004,0.24,0.005c0.003-0.16,0.007-0.32,0.011-0.479
	C443.922,25.424,443.842,25.422,443.762,25.421z M441.646,23.454c-0.4-0.009-0.8-0.018-1.2-0.027
	c0.298,0.813,0.354,0.704,1.424,0.752c0.003-0.16,0.007-0.32,0.01-0.48c-0.08-0.002-0.16-0.003-0.24-0.005
	C441.642,23.613,441.644,23.533,441.646,23.454z M440.403,25.347c-0.003,0.16-0.007,0.32-0.011,0.479
	c0.24,0.005,0.48,0.011,0.72,0.016c0.004-0.16,0.007-0.32,0.011-0.48C440.883,25.357,440.643,25.352,440.403,25.347z
	 M436.127,23.331c-0.16-0.003-0.32-0.007-0.48-0.01c-0.003,0.16-0.007,0.32-0.011,0.48c0.16,0.003,0.32,0.007,0.48,0.01
	C436.12,23.651,436.123,23.491,436.127,23.331z M379.292,20.632c-0.32-0.007-0.64-0.014-0.959-0.021
	c0.053,0.623-0.122,0.423,0.949,0.501C379.286,20.953,379.289,20.792,379.292,20.632z M369.7,20.18
	c-0.238-0.085-0.476-0.171-0.714-0.256c-0.004,0.16-0.007,0.32-0.011,0.48c0.24,0.005,0.48,0.01,0.72,0.016
	C369.697,20.34,369.699,20.26,369.7,20.18z M311.784,22.979c0.242-0.075,0.483-0.149,0.725-0.224c0.003-0.16,0.007-0.32,0.011-0.48
	c-0.08-0.002-0.16-0.003-0.24-0.005c-0.188,0.16-0.542,0.303-0.73,0.464c0.08,0.002,0.16,0.003,0.24,0.005
	C311.788,22.819,311.786,22.899,311.784,22.979z M203.806,31.631c-0.24-0.005-0.48-0.011-0.72-0.016
	C203.494,31.835,203.388,31.835,203.806,31.631z M13.08,26.207c-0.16-0.003-0.32-0.007-0.48-0.01c0.078,0.5,0.048,0.463,0.224,0.725
	c0.001-0.08,0.003-0.16,0.005-0.24C13.027,26.441,12.916,26.618,13.08,26.207z M5.204,24.112c-0.24-0.005-0.48-0.011-0.72-0.016
	c-0.004,0.16-0.007,0.32-0.011,0.479c0.16,0.004,0.32,0.007,0.48,0.011c0.002-0.08,0.003-0.16,0.005-0.24
	c0.08,0.001,0.16,0.003,0.24,0.005C5.2,24.272,5.202,24.192,5.204,24.112z M2.17,20.204c-0.083,0.158-0.167,0.316-0.25,0.475
	c0.08,0.002,0.16,0.003,0.24,0.005c0.029,0.338,0.235,0.245,0.235,0.245c0.005-0.24,0.01-0.479,0.016-0.72
	C2.33,20.208,2.25,20.206,2.17,20.204z M2.564,24.054c-0.003,0.16-0.007,0.32-0.01,0.48c0.16,0.004,0.32,0.007,0.48,0.011
	c0.004-0.16,0.007-0.32,0.011-0.48C2.885,24.061,2.725,24.058,2.564,24.054z M3.359,20.711c0.182,0.783-0.126,0.364,0.464,0.73
	c0.117-0.05,1.56-0.042,1.679,0.037c0.08,0.001,0.16,0.003,0.24,0.005c0.005-0.24,0.011-0.48,0.016-0.72
	C4.474,20.711,4.549,20.693,3.359,20.711z M6.686,22.225c-0.298-0.599,0.106-0.161-0.469-0.49c-0.089,0.398-0.178,0.796-0.267,1.194
	c0.16,0.003,0.32,0.007,0.48,0.011C6.628,22.529,7.07,22.512,6.686,22.225z M6.601,26.064c0.002-0.08,0.003-0.16,0.005-0.24
	c-0.242,0.075-0.484,0.149-0.725,0.224c-0.005,0.24-0.01,0.48-0.016,0.72c0.5-0.078,0.463-0.048,0.725-0.224
	c0.198-0.241,0.086-0.064,0.25-0.475C6.761,26.067,6.681,26.065,6.601,26.064z M8.281,26.101c-0.241-0.198-0.064-0.087-0.475-0.25
	c-0.229,0.214-0.428,0.31-0.73,0.464c-0.003,0.16-0.007,0.32-0.011,0.48c0.32,0.007,0.64,0.014,0.96,0.021
	c0.165-0.236,0.331-0.473,0.496-0.709C8.44,26.104,8.361,26.103,8.281,26.101z M9.357,20.844c-0.23,0.756-0.469,0.78-0.752,1.423
	c0.517,0.234,0.843,0.593,1.179,0.986c0.242-0.075,0.483-0.149,0.725-0.224c-0.589-0.603-0.798-0.293-0.928-1.461
	c0.08,0.001,0.16,0.003,0.24,0.005c-0.002,0.08-0.003,0.16-0.005,0.24c0.214,0.229,0.31,0.428,0.464,0.73
	c0.198-0.241,0.087-0.064,0.25-0.475c0.204-0.272,0.12-0.295,0.261-0.955c0.08,0.002,0.16,0.004,0.24,0.005
	c0.236,0.37,0.349,0.48,0.704,0.736c0.009-0.4,0.018-0.8,0.027-1.2C10.96,20.719,10.159,20.781,9.357,20.844z M9.283,24.203
	c0.253,0.695,0.032,0.443,0.704,0.736c0.253,0.186,0.224,0.149,0.714,0.256c0.003-0.16,0.007-0.32,0.011-0.48l0.245-0.234
	c-0.16-0.003-0.32-0.007-0.479-0.011C10.171,24.252,9.89,24.242,9.283,24.203z M9.48,26.127c0.02,1.143,1.315,0.635,2.618,1.019
	c0.003-0.16,0.007-0.32,0.01-0.48C10.835,26.389,10.811,26.446,9.48,26.127z M12.679,22.598c-0.108,0.542-0.226,0.255-0.016,0.72
	c0.241,0.198,0.064,0.086,0.475,0.25c0.007-0.32,0.014-0.64,0.021-0.96C12.999,22.604,12.839,22.601,12.679,22.598z M13.682,20.699
	c-0.108,0.542-0.226,0.255-0.016,0.72c0.219,0.224,0.414,0.329,0.709,0.496c0.007-0.32,0.014-0.64,0.021-0.96
	C14.158,20.87,13.92,20.785,13.682,20.699z M13.122,24.288c-0.28,0.365-0.265,0.197-0.496,0.709c0.16,0.003,0.32,0.007,0.48,0.01
	c0.076,0.023,1.154,0.071,1.2,0.027c0.198-0.241,0.086-0.064,0.25-0.475C13.885,24.34,13.883,24.41,13.122,24.288z M14.524,25.999
	c-0.003,0.16-0.007,0.32-0.011,0.48c0.08,0.002,0.16,0.003,0.24,0.005c0.003-0.16,0.007-0.32,0.01-0.48
	C14.685,26.003,14.604,26.001,14.524,25.999z M16.086,20.512c-0.32-0.007-0.64-0.014-0.96-0.021c-0.007,0.32-0.014,0.64-0.021,0.96
	c0.361,0.136,0.403,0.171,0.955,0.261c0.085-0.238,0.171-0.476,0.256-0.714c-0.08-0.002-0.16-0.003-0.24-0.005
	C16.079,20.833,16.083,20.672,16.086,20.512z M18.944,21.536c-0.32-0.007-0.64-0.015-0.96-0.021c-0.079,0.766-0.255,0.761-0.026,1.2
	c0.315,0.397,0.147,0.272,0.709,0.496c0.28-0.496,0.354-0.432,0.507-1.189C18.986,21.772,19.09,21.954,18.944,21.536z M22.277,22.81
	c-0.003,0.16-0.007,0.32-0.011,0.48c0.24,0.005,0.48,0.011,0.72,0.016c0.003-0.16,0.007-0.32,0.01-0.479
	C22.757,22.821,22.517,22.815,22.277,22.81z M27.39,19.563c-0.32-0.007-0.64-0.014-0.96-0.021c-0.003,0.16-0.007,0.32-0.01,0.48
	c0.399,0.009,0.8,0.018,1.2,0.027c0.001-0.08,0.003-0.16,0.005-0.24C27.37,19.584,27.604,19.826,27.39,19.563z M28.104,19.818
	c0.408,0.221,0.302,0.22,0.72,0.016C28.584,19.829,28.345,19.824,28.104,19.818z M57,26.7c-0.085,0.238-0.171,0.476-0.256,0.714
	c0.24,0.005,0.48,0.011,0.72,0.016C57.282,26.647,57.589,27.066,57,26.7z M66.304,29.306c0.412,0.268,0.54,0.26,0.96,0.021
	C66.944,29.32,66.624,29.313,66.304,29.306z M76.072,32.644c0.453,0.587,0.296,0.636,0.949,0.501
	C76.696,32.651,76.789,32.814,76.072,32.644z M77.267,32.91c0.241,0.198,0.064,0.086,0.475,0.25
	C77.5,32.962,77.678,33.074,77.267,32.91z M89.989,32.951c-0.253-0.186-0.224-0.149-0.714-0.256
	c-0.085,0.238-0.17,0.477-0.256,0.715c0.569,0.214,0.393,0.105,0.709,0.496c0.282-0.199,0.707-0.46,0.976-0.698
	C90.465,33.122,90.227,33.037,89.989,32.951z M111.61,32.23c0.241,0.198,0.064,0.086,0.475,0.25
	C111.844,32.282,112.021,32.394,111.61,32.23z M112.33,32.246c0.241,0.199,0.064,0.087,0.475,0.25
	C112.564,32.298,112.741,32.41,112.33,32.246z M112.069,33.2c0.078,0.63-0.185,0.311,0.469,0.491
	c0.404-0.479,0.276,0.174,0.491-0.469C112.709,33.214,112.389,33.208,112.069,33.2z M113.53,32.272
	c0.408,0.221,0.302,0.22,0.72,0.016C114.01,32.283,113.77,32.278,113.53,32.272z M115.252,30.39c0.241,0.198,0.064,0.086,0.475,0.25
	C115.486,30.442,115.663,30.554,115.252,30.39z M118.825,31.669c-0.004,0.16-0.007,0.32-0.011,0.48
	c0.336-0.105,1.169-0.257,1.45-0.448C119.784,31.69,119.304,31.68,118.825,31.669z M142.595,31.476
	c-0.004,0.16-0.007,0.32-0.011,0.48c0.24,0.005,0.48,0.01,0.72,0.016c0.002-0.08,0.003-0.16,0.005-0.24
	C143.071,31.646,142.833,31.561,142.595,31.476z M143.778,32.222c-0.08-0.002-0.16-0.004-0.24-0.005
	c-0.002,0.08-0.004,0.16-0.005,0.24c0.718,0.096,1.436,0.192,2.154,0.288c0.005-0.24,0.011-0.479,0.016-0.72
	C144.844,32.053,143.786,32.215,143.778,32.222z M151.499,30.472c-0.085,0.238-0.17,0.477-0.256,0.715
	c1.081,0.064,1.152,0.271,1.909,0.522c0.002-0.08,0.003-0.16,0.005-0.24C152.622,30.996,152.281,30.799,151.499,30.472z
	 M159.747,26.574c-0.394,0.093-1.756,0.148-1.919-0.042c-0.383-0.406-0.32-0.441-0.469-0.491c-0.382-0.142-0.572-0.205-1.194-0.267
	c-0.182,0.205-0.308,0.264-0.49,0.469c0.08,0.002,0.16,0.004,0.24,0.005c0.202,0.291,0.191,0.274,0.469,0.491
	c0.697,0.322,2.217,0.252,3.108,0.549c-0.249,0.188-0.067,0.083-0.485,0.229c-0.427,0.245-0.527,0.132-1.205,0.213
	c-0.005,0.24-0.011,0.479-0.016,0.72c0.08,0.001,0.16,0.003,0.24,0.005c0.689-0.466,1.314-0.035,2.879,0.063
	c0.004-0.16,0.007-0.32,0.011-0.48C160.49,27.686,160.049,27.032,159.747,26.574z M159.636,31.613
	c-1.003-0.774-3.655-0.832-5.982-0.853c-0.137,0.361-0.171,0.402-0.261,0.955c1.645,0.418,7.005,1.698,7.918,0.175
	c0.08,0.001,0.16,0.003,0.24,0.005c0.002-0.08,0.004-0.16,0.005-0.24C160.916,31.641,160.275,31.627,159.636,31.613z
	 M167.074,31.777c-0.003,0.16-0.007,0.32-0.01,0.48c0.08,0.002,0.16,0.003,0.24,0.005c0.003-0.16,0.007-0.32,0.011-0.48
	C167.234,31.781,167.154,31.779,167.074,31.777z M171.563,24.195c0.408,0.221,0.302,0.22,0.72,0.016
	C172.042,24.206,171.803,24.2,171.563,24.195z M184.936,27.372c0.408,0.22,0.302,0.22,0.72,0.016
	C185.416,27.382,185.176,27.377,184.936,27.372z M192.779,30.906c-0.001,0.08-0.003,0.16-0.005,0.24
	c-0.08-0.001-0.16-0.003-0.24-0.005c-0.465,0.176,0.475,0.25,0.475,0.25c0.611,0.539,1.325,0.423,2.389,0.533
	c0.085-0.238,0.171-0.476,0.256-0.714C194.619,31.212,193.463,31.163,192.779,30.906z M196.378,30.986
	c0.058,0.561,0.095,0.597,0.219,0.965c0.424-0.142,0.234-0.041,0.485-0.229c0.424-0.142,0.234-0.041,0.485-0.229
	C197.124,31.282,196.936,31.147,196.378,30.986z M198.522,31.753c-0.315-0.396-0.147-0.272-0.709-0.496
	c-0.003,0.16-0.007,0.32-0.011,0.48c0.08,0.002,0.16,0.003,0.24,0.005c0.95,0.821,3.435,0.345,4.329-0.384
	c-0.947-0.104-0.837-0.146-1.679-0.038c0.003-0.16,0.007-0.32,0.01-0.479c0.424-0.142,0.234-0.042,0.485-0.229
	c-0.638-0.094-1.276-0.188-1.914-0.282c-0.002,0.08-0.003,0.16-0.005,0.24c-0.08-0.001-0.16-0.003-0.24-0.005
	c0.173,0.213,0.296,0.277,0.469,0.491c-0.24-0.005-0.479-0.011-0.72-0.016C198.678,31.535,198.709,31.5,198.522,31.753z
	 M202.388,30.639c-0.24-0.005-0.48-0.011-0.72-0.016C202.076,30.844,201.97,30.843,202.388,30.639z M198.81,29.6
	c-0.002,0.08-0.004,0.16-0.005,0.24c0.08,0.002,0.16,0.003,0.24,0.005c-0.002,0.08-0.003,0.16-0.005,0.24
	c2.783-0.423,4.082,0.758,6.937,1.113c0.007-0.32,0.014-0.64,0.021-0.959c0.16,0.003,0.32,0.007,0.48,0.011
	c-0.004,0.16-0.007,0.32-0.011,0.479c-0.037,0.166,0.057,0.052-0.25,0.475c0.638,0.094,1.276,0.188,1.914,0.283
	c0.003-0.16,0.007-0.32,0.011-0.48c-0.496-0.1-0.46-0.068-0.715-0.256c0.32,0.007,0.64,0.014,0.96,0.021
	c-0.071-0.402-0.142-0.804-0.213-1.205C204.835,29.223,203.157,29.675,198.81,29.6z M207.965,28.122
	c-0.003,0.16-0.007,0.32-0.011,0.48c0.24,0.005,0.48,0.011,0.72,0.016c0.21-0.151,0.762-0.304,0.971-0.458
	C209.084,28.146,208.524,28.134,207.965,28.122z M208.418,29.332c0.413,0.313,0.978,0.383,1.195,0.267
	c0.08,0.001,0.16,0.003,0.24,0.005c0.002-0.08,0.003-0.16,0.005-0.24C209.378,29.354,208.898,29.343,208.418,29.332z
	 M208.626,30.777c-0.003,0.16-0.007,0.32-0.01,0.48c0.16,0.003,0.32,0.007,0.48,0.011c0.229-0.093,0.728-0.127,0.959,0.021
	c0.08,0.001,0.16,0.003,0.24,0.005c0.005-0.24,0.01-0.479,0.016-0.72C209.57,30.559,209.078,30.628,208.626,30.777z M210.364,28.175
	c0.241,0.198,0.064,0.087,0.475,0.25C210.598,28.227,210.775,28.339,210.364,28.175z M213.713,28.729
	c0.315,0.397,0.147,0.272,0.709,0.496c0.003-0.16,0.007-0.32,0.011-0.48C214.193,28.74,213.953,28.734,213.713,28.729z
	 M219.69,29.822c-0.71-0.429-1.94-0.172-2.405,0.187c0.004-0.16,0.007-0.32,0.011-0.479c-1.121,0.055-2.243,0.11-3.364,0.166
	c-0.283-0.096-0.291-0.393-0.949-0.501c0.007-0.32,0.014-0.64,0.021-0.959c-0.56-0.013-1.12-0.025-1.679-0.037
	c-0.004,0.16-0.007,0.32-0.011,0.48c0.43,0.386,0.33,0.219,0.458,0.97c-0.66,0.079-1.077,0.002-1.445,0.208
	c0.186,0.239,0.333,0.666,0.458,0.97c0.238,0.085,0.477,0.171,0.714,0.256c0.002-0.08,0.004-0.16,0.005-0.24
	c0,0-0.951-0.126-0.475-0.25c0.08,0.001,0.16,0.003,0.24,0.005c0.374-0.176,0.822-0.028,1.68,0.037
	c0.181,0.783-0.126,0.364,0.464,0.73c1.272-1.528,4.629-0.884,6.249-0.342c0.196-0.627,0.3-0.566,0.506-1.189
	C220.01,29.829,219.85,29.825,219.69,29.822z M220.65,29.843c0.241,0.198,0.064,0.086,0.475,0.25
	C220.884,29.895,221.061,30.007,220.65,29.843z M263.007,25.02c-0.085,0.238-0.17,0.476-0.256,0.714
	c0.16,0.003,0.32,0.007,0.48,0.011c0.182-0.205,0.308-0.264,0.491-0.469C263.483,25.19,263.245,25.104,263.007,25.02z
	 M264.942,24.342c0.075,0.242,0.149,0.483,0.224,0.725c0.24,0.005,0.48,0.011,0.72,0.016c0.002-0.08,0.003-0.16,0.005-0.24
	C265.473,24.603,265.495,24.533,264.942,24.342z M273.633,22.134c0.241,0.199,0.064,0.087,0.475,0.251
	C273.867,22.186,274.044,22.298,273.633,22.134z M288.221,13.815c0.219,0.224,0.414,0.329,0.709,0.496
	c0.004-0.16,0.007-0.32,0.011-0.48C288.701,13.825,288.461,13.82,288.221,13.815z M296.359,25.758
	c-0.003,0.16-0.007,0.32-0.011,0.48c0.32,0.007,0.64,0.014,0.96,0.021c0.001-0.08,0.003-0.16,0.005-0.24
	c-0.08-0.001-0.16-0.003-0.24-0.005c0.002-0.08,0.003-0.16,0.005-0.24C296.488,25.83,296.959,25.929,296.359,25.758z
	 M297.174,21.455c0.298,0.813,0.354,0.704,1.424,0.751c0.003-0.16,0.007-0.32,0.01-0.48
	C297.924,21.695,297.584,21.61,297.174,21.455z M300.438,25.848c-0.241-0.198-0.064-0.086-0.475-0.25
	c-0.377,0.244-0.986,0.226-1.685,0.203c-0.002,0.08-0.003,0.16-0.005,0.24c0.08,0.001,0.16,0.003,0.24,0.005
	c0.434,0.307,1.362,0.292,2.154,0.288c0.004-0.16,0.007-0.32,0.011-0.48C300.598,25.852,300.518,25.85,300.438,25.848z
	 M302.82,15.818c-0.003,0.16-0.007,0.32-0.011,0.48c0.08,0.002,0.16,0.003,0.24,0.005c0.003-0.16,0.007-0.32,0.011-0.48
	C302.98,15.822,302.9,15.82,302.82,15.818z M302.117,25.885c0.075,0.242,0.149,0.484,0.224,0.725
	c0.424-0.142,0.234-0.041,0.485-0.229c0.198-0.241,0.086-0.064,0.25-0.475C302.757,25.899,302.438,25.893,302.117,25.885z
	 M303.3,15.829c0.315,0.397,0.147,0.272,0.709,0.496c0.004-0.16,0.007-0.32,0.011-0.479C303.78,15.84,303.54,15.834,303.3,15.829z
	 M303.157,22.308c0.046,0.362-0.106,0.85,0.469,0.49c0.16,0.004,0.32,0.007,0.48,0.011c0.002-0.08,0.003-0.16,0.005-0.24
	C303.793,22.482,303.475,22.395,303.157,22.308z M304.74,15.861c-0.003,0.16-0.007,0.32-0.01,0.48
	c0.24,0.005,0.479,0.011,0.72,0.016c0.001-0.08,0.003-0.16,0.005-0.24C305.216,16.032,304.978,15.946,304.74,15.861z
	 M305.694,16.122c0.241,0.198,0.064,0.087,0.475,0.251C305.928,16.174,306.105,16.286,305.694,16.122z M306.5,23.102
	c-0.182,0.206-0.308,0.264-0.49,0.469c0.08,0.002,0.16,0.004,0.24,0.005c0.315,0.397,0.147,0.272,0.709,0.496
	c0.002-0.08,0.004-0.16,0.005-0.24c0.08,0.002,0.16,0.004,0.24,0.005c0.001-0.08,0.003-0.16,0.005-0.24
	C306.973,23.432,306.736,23.267,306.5,23.102z M305.242,25.714c-0.007,0.32-0.014,0.64-0.021,0.96c0.16,0.003,0.32,0.007,0.48,0.011
	c0.621-0.635,1.384-0.208,1.93-0.438c0.186-0.253,0.149-0.224,0.256-0.714C307.005,25.594,306.124,25.654,305.242,25.714z
	 M308.174,23.379c-0.003,0.16-0.007,0.32-0.011,0.48c0.242-0.075,0.483-0.149,0.725-0.224c0.002-0.08,0.004-0.16,0.005-0.24
	C308.654,23.39,308.414,23.384,308.174,23.379z M309.14,23.16c-0.004,0.16-0.007,0.32-0.011,0.48
	c0.417,0.161,0.232,0.051,0.475,0.25c0.16,0.003,0.32,0.007,0.48,0.011c0.323-0.585-0.1-0.166,0.49-0.469
	c0.002-0.08,0.003-0.16,0.005-0.24C309.714,23.248,309.774,23.35,309.14,23.16z M313.543,19.417
	c-0.694-0.011-0.474-0.069-1.435-0.271c-0.38,0.351-0.445,0.177-0.735,0.704c0.798,0.098,1.596,0.196,2.394,0.293
	c0.003-0.16,0.007-0.32,0.01-0.48c-0.08-0.002-0.16-0.003-0.24-0.005C313.54,19.577,313.542,19.497,313.543,19.417z M315.932,19.95
	c-0.003,0.16-0.007,0.32-0.011,0.48c0.24,0.005,0.48,0.011,0.72,0.016c0.003-0.16,0.007-0.32,0.01-0.479
	C316.412,19.96,316.172,19.955,315.932,19.95z M344.138,14.573c0.415,0.293,0.774,0.292,1.2,0.027
	C344.938,14.59,344.538,14.582,344.138,14.573z M362.123,15.451c-0.291,0.18-1.162,0.262-1.45,0.448
	c0.56,0.013,1.12,0.025,1.68,0.038C362.21,15.512,362.311,15.702,362.123,15.451z M365.456,16.725
	c-1.237,1.106-2.658-1.194-4.793-0.346c-0.657,0.261,0.175,0.537-1.216,0.693c0.004-0.16,0.007-0.32,0.011-0.48
	c0.08,0.002,0.16,0.004,0.24,0.005c0.001-0.08,0.003-0.16,0.005-0.24c-2.072-0.502-3.551-1.237-5.753-0.368
	c-0.087-0.647-0.583-0.54-1.909-0.522c-0.345,0.223-0.791,0.217-1.445,0.208c-0.002,0.08-0.003,0.16-0.005,0.24
	c0.895,0.411,0.606,0.299,0.454,1.21c1.477,0.222,2.26,0.727,4.063,0.81c0.1-0.496,0.068-0.46,0.256-0.714
	c0.742,0.834,2.603,1.291,4.047,1.53c0.009-0.4,0.018-0.8,0.027-1.2c0.16,0.003,0.32,0.007,0.48,0.011
	c0.204,0.53,0.199,0.351,0.464,0.73c-0.291,0.202-0.274,0.191-0.491,0.469c0.16,0.003,0.32,0.007,0.48,0.01
	c0.324-0.585-0.099-0.166,0.49-0.469c0.306,0.784,0.716,0.656,1.173,1.227c0.764-0.406,1.166-0.648,2.416-0.667
	c0-0.922-0.005-0.502,0.271-1.434c0.08,0.002,0.16,0.003,0.24,0.005c-0.005,0.24-0.011,0.48-0.016,0.72
	c-0.307,0.369-0.157,0.119-0.011,0.48c-0.001,0.08-0.003,0.16-0.005,0.24c0.915-0.135,0.667,0.305,1.429,0.512
	c0.109,0.03,1.196-0.215,1.685-0.203c0.001-0.08,0.003-0.16,0.005-0.24c-0.688-0.245-1.878-0.541-2.368-1.493
	c0.513,0.122,1.325,0.218,1.925-0.197C366.817,17.002,366.624,16.787,365.456,16.725z M367.737,11.254
	c-0.188,0.16-0.542,0.303-0.73,0.464c0.08,0.002,0.16,0.004,0.24,0.005c1.003,0.84,3.475,0.81,4.548,0.581
	c0.002-0.08,0.004-0.16,0.005-0.24C370.446,11.794,369.092,11.524,367.737,11.254z M370.083,13.707
	c0.16,0.003,0.32,0.007,0.48,0.011c0.224-0.255-0.018-0.021,0.245-0.235c0.002-0.08,0.004-0.16,0.005-0.24
	c-0.24-0.005-0.48-0.011-0.72-0.016C370.091,13.387,370.087,13.547,370.083,13.707z M372.393,17.839
	c-0.32-0.007-0.64-0.015-0.959-0.021c-0.064,0.872,0.314,0.661-0.741,0.944c0.002-0.08,0.003-0.16,0.005-0.24
	c0.63-0.499,0.134-0.28,0.267-1.194c0.401-0.071,0.803-0.142,1.205-0.213c-0.758-0.919-0.761-1.007-2.858-1.023
	c0,0-1.894-0.033-2.879-0.063c-0.001,0.08-0.003,0.16-0.005,0.24c0.16,0.003,0.32,0.007,0.479,0.011
	c0.673,0.475,2.216,0.599,3.104,0.789c0.165,0.715,0.393,0.927,0.688,1.456c-0.4-0.009-0.8-0.018-1.2-0.026
	c0.003-0.16,0.007-0.32,0.011-0.48c0.198-0.241,0.086-0.064,0.25-0.475c-1.034,0.078-0.806-0.065-1.915-0.282
	c-0.003,0.16-0.007,0.32-0.01,0.48c0.557,0.083,0.592,0.122,0.954,0.261c-0.001,0.08-0.003,0.16-0.005,0.24
	c-0.783,0.182-0.364-0.125-0.731,0.464c0.569,0.215,0.393,0.105,0.709,0.496c0.932-0.297,2.553-0.201,3.844-0.155
	c0.004-0.16,0.007-0.32,0.011-0.479C372.442,18.303,372.478,18.334,372.393,17.839z M373.091,18.815
	c-0.003,0.16-0.007,0.32-0.011,0.479c0.16,0.004,0.32,0.007,0.48,0.011c0.002-0.08,0.003-0.16,0.005-0.24
	C373.408,18.982,373.25,18.898,373.091,18.815z M374.286,19.082c0.182,0.783-0.125,0.364,0.464,0.73
	c0.004-0.16,0.007-0.32,0.011-0.479C374.602,19.249,374.444,19.165,374.286,19.082z M377.666,18.196
	c-0.24-0.005-0.48-0.011-0.72-0.016c0.307,0.372,0.443,0.518,0.944,0.741c0.002-0.08,0.003-0.16,0.005-0.24
	C377.708,18.432,377.812,18.614,377.666,18.196z M377.933,17.001c0.219,0.224,0.414,0.329,0.709,0.496
	c0.004-0.16,0.007-0.32,0.011-0.48C378.413,17.012,378.172,17.007,377.933,17.001z M378.141,18.446
	c-0.003,0.16-0.007,0.32-0.011,0.48c0.857,0.059,1.307,0.231,1.68,0.037c0.599-0.297,0.161,0.107,0.491-0.469
	C379.543,18.676,379.418,18.559,378.141,18.446z M379.372,17.033c-0.085,0.238-0.17,0.477-0.256,0.715
	c0.32,0.007,0.64,0.014,0.96,0.021c0.229,0.167,0.898,0.269,1.914,0.283c0.002-0.08,0.003-0.16,0.005-0.24
	C381.087,17.402,380.634,17.31,379.372,17.033z M386.933,11.679c0.315,0.397,0.147,0.273,0.709,0.496
	c0.003-0.16,0.007-0.32,0.01-0.48C387.413,11.69,387.172,11.685,386.933,11.679z M389.065,12.927c0.002-0.08,0.003-0.16,0.005-0.24
	c-0.24-0.005-0.48-0.011-0.72-0.016c0.367,0.447,0.204,0.34,0.949,0.501c0.001-0.08,0.003-0.16,0.005-0.24
	C389.226,12.931,389.146,12.929,389.065,12.927z M389.615,20.621c-0.829-0.598-2.517-0.761-3.823-0.805
	c0.074,0.241,0.149,0.483,0.224,0.725c1.756,0.199,3.512,0.397,5.268,0.597c0.004-0.16,0.007-0.32,0.011-0.48
	C390.735,20.646,390.175,20.633,389.615,20.621z M391.108,18.253c-0.108,0.542-0.226,0.255-0.016,0.72
	c0.399,0.283,1.169,0.282,1.914,0.283c0.291-0.18,1.162-0.262,1.45-0.448C393.225,18.665,392.768,18.348,391.108,18.253z
	 M394.782,14.974c0.078,0.5,0.048,0.463,0.224,0.725c0.005-0.24,0.01-0.48,0.016-0.72C394.941,14.978,394.862,14.976,394.782,14.974
	z M395.731,15.475c0.078,0.63-0.186,0.311,0.469,0.491c0.001-0.08,0.003-0.16,0.005-0.24
	C396.047,15.642,395.889,15.559,395.731,15.475z M396.435,16.211c0.24,0.005,0.48,0.011,0.72,0.016
	c0.002-0.08,0.004-0.16,0.005-0.24c-0.238-0.085-0.476-0.17-0.714-0.256C396.442,15.891,396.438,16.051,396.435,16.211z
	 M396.456,15.251c-0.002,0.08-0.003,0.16-0.005,0.24c0.16,0.003,0.32,0.007,0.48,0.011c0.28,0.201,1.093,0.381,1.429,0.512
	c0.005-0.24,0.011-0.48,0.016-0.72C397.736,15.279,397.096,15.265,396.456,15.251z M400.508,16.541
	c-0.241-0.198-0.064-0.086-0.475-0.25C400.274,16.489,400.098,16.377,400.508,16.541z M400.492,17.261
	c0.393,0.277,0.247,0.431,0.48,0.011C400.813,17.268,400.652,17.265,400.492,17.261z M401.015,15.352
	c-0.24-0.005-0.48-0.011-0.72-0.016c0.367,0.447,0.204,0.34,0.949,0.501c0.002-0.08,0.003-0.16,0.005-0.24
	c-0.08-0.001-0.16-0.003-0.24-0.005C401.011,15.512,401.013,15.432,401.015,15.352z M399.98,18.69
	c-1.005-0.777-2.973-0.083-3.839-0.085c-0.202-0.291-0.191-0.274-0.469-0.491c-0.179,0.753-0.171,0.5-0.501,0.949
	c1.676,0.197,3.352,0.395,5.028,0.592c-0.079-0.706-0.386-0.31,0.256-0.715c0.279,0.199,0.399,0.194,0.955,0.261
	c0.002-0.08,0.003-0.16,0.005-0.24C401.004,18.809,400.664,18.731,399.98,18.69z M391.535,20.664
	c0.182,0.783-0.125,0.364,0.464,0.73c0.46-0.417,0.2-0.439,0.725-0.224c1.056,0.296,0.758,0.729,1.898,1.002
	c1.293-1.4,1.732,0.377,3.365-0.166c1.049-0.349,0.354-0.829,2.17-0.432c0.138,0.714,0.123,0.888,0.693,1.215
	c0.053-0.625,0.121-0.812,0.267-1.194c0.844,0.053,0.638,0.131,1.2,0.027c0.083-0.158,0.167-0.316,0.25-0.475
	C399.369,19.992,394.762,20.363,391.535,20.664z M410.213,22.757c-0.465,0.176,0.475,0.25,0.475,0.25
	c-0.142-0.424-0.041-0.234-0.229-0.485c-0.002,0.08-0.003,0.16-0.005,0.24C410.373,22.761,410.293,22.759,410.213,22.757z
	 M412.41,21.126c-0.335-0.238-0.78-0.252-1.434-0.272c-0.28,0.365-0.265,0.196-0.496,0.709c-0.178,0.367-0.032,0.032-0.016,0.72
	c0.08,0.002,0.16,0.004,0.24,0.005c0.937-0.71,1.778,0.046,2.426-1.146C412.89,21.136,412.65,21.131,412.41,21.126z M415.124,17.825
	c0.056,0.865,0.158,0.805-0.032,1.439c0.4,0.009,0.8,0.018,1.2,0.026c0.01-0.479,0.021-0.959,0.032-1.439
	C415.923,17.843,415.523,17.834,415.124,17.825z M416.803,17.862c-0.005,0.24-0.011,0.48-0.016,0.72
	c0.281,0.214,0.266,0.203,0.469,0.49c0.388-0.125,0.581-0.179,1.205-0.213c0.005-0.24,0.011-0.48,0.016-0.72
	C417.919,18.047,417.361,17.955,416.803,17.862z M418.952,18.39c-0.004,0.16-0.007,0.32-0.011,0.48
	c0.16,0.004,0.32,0.007,0.48,0.011c0.001-0.08,0.003-0.16,0.005-0.24C419.269,18.557,419.11,18.473,418.952,18.39z M421.533,21.088
	c-0.003,0.16-0.007,0.32-0.011,0.479c0.16,0.004,0.32,0.007,0.48,0.011c0.004-0.16,0.007-0.32,0.011-0.48
	C421.853,21.095,421.693,21.091,421.533,21.088z M428.438,23.641c-0.714-0.476-3.185-0.461-4.068-0.57
	c-0.224,0.255,0.018,0.021-0.245,0.235c-0.002,0.08-0.003,0.16-0.005,0.24c0.56,0.012,1.12,0.025,1.68,0.037
	c0.419,0.301,0.419,0.013,0.714,0.256c0.175,0.261,0.139,0.23,0.224,0.725c-0.702-0.109-0.292-0.399-0.725,0.224
	c0.32,0.007,0.64,0.014,0.959,0.021c0.335,0.238,0.78,0.251,1.435,0.271c0.147-0.823,0.285-0.742,0.512-1.429
	C428.758,23.648,428.598,23.645,428.438,23.641z M432.378,19.167c-0.579,0.077-0.372,0.144-0.959-0.021
	c-0.374,0.899-0.402,0.991,0.933,1.221c0.136-0.36,0.171-0.402,0.261-0.954c-0.08-0.002-0.16-0.003-0.24-0.005
	C432.375,19.327,432.376,19.247,432.378,19.167z M433.092,19.423c0.075,0.242,0.149,0.483,0.224,0.725
	c0.08,0.001,0.16,0.003,0.24,0.005c0.005-0.24,0.01-0.48,0.016-0.72C433.413,19.43,433.252,19.427,433.092,19.423z M433.728,23.278
	c0.241,0.198,0.063,0.086,0.474,0.25C433.961,23.331,434.138,23.442,433.728,23.278z M433.461,24.473
	c-0.333,0.382-0.16,0.266-0.73,0.464c-0.34-0.553-0.489-0.733-1.179-0.986c-0.083,0.557-0.121,0.592-0.261,0.955
	c-0.381-0.143-0.572-0.205-1.194-0.267c0.005-0.24,0.011-0.48,0.016-0.72c-0.24-0.005-0.48-0.011-0.72-0.016
	c-0.196,0.627-0.3,0.566-0.506,1.189c0.08,0.002,0.16,0.003,0.24,0.005c1.311,0.944,4.86,0.5,6.228,0.618
	c0.003-0.16,0.007-0.32,0.01-0.48C434.189,25.052,434.529,24.736,433.461,24.473z M435.721,19.961
	c-0.416-0.264-0.521-0.156-1.194-0.267c-0.103,0.575-0.16,0.366-0.021,0.96c0.903-0.201,1.847,0.281,2.416-0.667
	C436.521,19.979,436.121,19.97,435.721,19.961z M437.385,20.718c-0.09,0.478-0.181,0.957-0.271,1.435
	c0.08,0.001,0.16,0.003,0.24,0.005c0.249-0.188,0.068-0.084,0.485-0.229c0.007-0.32,0.014-0.64,0.021-0.959
	C437.701,20.886,437.543,20.802,437.385,20.718z M437.764,25.288c-0.241-0.198-0.063-0.087-0.475-0.25
	c-0.103,0.575-0.159,0.365-0.021,0.959c0.162-0.076,0.323-0.153,0.485-0.229c0.083-0.158,0.167-0.316,0.25-0.475
	C437.924,25.292,437.844,25.29,437.764,25.288z M438.729,25.069c-0.25,0.188-0.068,0.083-0.485,0.229
	c-0.005,0.24-0.011,0.479-0.016,0.72c0.24,0.005,0.479,0.01,0.72,0.016c0.24-0.418,0.311-0.396,0.501-0.949
	C439.209,25.08,438.969,25.075,438.729,25.069z M440.525,19.828c-0.262,0.842-0.526,0.78-0.757,1.664
	c0.772,0.362,0.527,0.597,1.664,0.757c0.003-0.16,0.007-0.32,0.011-0.48c-0.24-0.005-0.48-0.011-0.72-0.016
	c0.007-0.32,0.014-0.64,0.021-0.959c0.08,0.001,0.16,0.003,0.24,0.005c0.273,0.502,0.154,0.455,0.704,0.736
	c0.052-0.626,0.121-0.813,0.267-1.195c0.418,0.24,0.396,0.311,0.949,0.501c0.007-0.32,0.014-0.64,0.021-0.96
	C442.125,19.863,441.325,19.846,440.525,19.828z M441.603,25.373c-0.108,0.542-0.226,0.255-0.016,0.72
	c-0.002,0.08-0.003,0.16-0.005,0.24c0.69-0.159,1.081-0.2,1.45-0.448C442.556,25.714,442.079,25.543,441.603,25.373z
	 M444.077,22.067c-0.241-0.198-0.064-0.086-0.475-0.25c-0.249,0.188-0.067,0.083-0.485,0.229c0.241,0.198,0.063,0.086,0.474,0.25
	c0.254,0.186,0.224,0.149,0.715,0.256c0.003-0.16,0.007-0.32,0.011-0.48C444.237,22.07,444.157,22.069,444.077,22.067z
	 M445.324,19.934c-0.24-0.005-0.48-0.011-0.72-0.016c0.078,0.5,0.048,0.463,0.224,0.725c-0.002,0.08-0.004,0.16-0.005,0.24
	c0.24,0.005,0.48,0.011,0.72,0.016c-0.078-0.5-0.048-0.463-0.224-0.725C445.321,20.094,445.322,20.014,445.324,19.934z
	 M447.249,19.737c-0.4-0.009-0.8-0.018-1.2-0.027c-0.005,0.24-0.011,0.48-0.016,0.72c0.496,0.28,0.432,0.354,1.189,0.507
	c0.003-0.16,0.007-0.32,0.011-0.48C447.411,20.089,447.265,20.424,447.249,19.737z M449.873,20.515
	c-0.367,0.121-0.41,0.153-0.965,0.219c-0.009,0.4-0.018,0.8-0.026,1.2c0.382,0.143,0.573,0.205,1.194,0.267
	C450.09,21.458,450.021,20.966,449.873,20.515z M453.44,22.034c-0.004,0.16-0.007,0.32-0.011,0.48c0.16,0.003,0.32,0.007,0.48,0.011
	c0.224-0.255-0.019-0.021,0.245-0.235c0.001-0.08,0.003-0.16,0.005-0.24C453.919,22.045,453.68,22.04,453.44,22.034z
	 M457.838,18.531c-0.002,0.08-0.003,0.16-0.005,0.24c-0.159,0.242-0.521,0.038-0.245,0.235c0.279,0.199,0.399,0.194,0.955,0.261
	c0.003-0.16,0.007-0.32,0.01-0.48C458.315,18.701,458.077,18.616,457.838,18.531z M459.268,19.042
	c0.241,0.198,0.064,0.086,0.475,0.25C459.501,19.095,459.678,19.207,459.268,19.042z M371.657,18.543
	c0.16,0.003,0.32,0.007,0.48,0.011c-0.001,0.08-0.003,0.16-0.005,0.24C371.714,18.633,371.899,18.742,371.657,18.543z
	 M355.127,16.977c-0.075-0.242-0.149-0.483-0.224-0.725c1.077,0.056,0.924,0.331,1.445-0.208c0.295,0.333,0.318,0.432,0.458,0.97
	C356.343,16.926,356.053,16.971,355.127,16.977z M352.733,16.684c-0.173-0.213-0.296-0.277-0.469-0.49
	c0.4,0.009,0.8,0.018,1.2,0.026c-0.003,0.16-0.007,0.32-0.011,0.48C353.213,16.694,352.973,16.689,352.733,16.684z M407.414,19.095
	c-0.188-0.25-0.084-0.068-0.229-0.485c0.382,0.333,0.266,0.16,0.464,0.73c-0.08-0.002-0.16-0.003-0.24-0.005
	C407.41,19.255,407.412,19.175,407.414,19.095z M433.631,16.794c0.653,0.013,1.103,0.034,1.434,0.272
	C434.413,17.053,433.962,17.033,433.631,16.794z M411.498,18.945c0.005-0.24,0.011-0.479,0.016-0.72
	c0.175,0.262,0.139,0.23,0.224,0.725C411.658,18.949,411.578,18.947,411.498,18.945z M408.139,18.871
	c0.005-0.24,0.011-0.48,0.016-0.72c0.174,0.261,0.139,0.23,0.224,0.725C408.298,18.874,408.219,18.873,408.139,18.871z
	 M411.999,17.996c-1.074-0.762-5.069-0.101-5.967-1.572c0.08,0.002,0.16,0.003,0.24,0.005c0.001-0.08,0.003-0.16,0.005-0.24
	c0.488,0.047,0.65,0.189,1.205-0.214c1.291,0.397,2.311,1.042,3.813,1.285c0.284-0.684,0.052-0.441,0.736-0.704
	c0.189,0.578,0.088,0.397,0.464,0.73c-0.085,0.238-0.17,0.477-0.256,0.714C412.159,18,412.079,17.998,411.999,17.996z
	 M403.116,18.039c-0.258-0.507-0.334-0.447-0.453-1.21c0.608-0.004,0.892-0.009,1.205-0.213c-0.641-0.165-1.041-0.359-1.424-0.752
	c1.182,0.026,2.331,0.011,2.858,1.023c-0.24-0.005-0.48-0.01-0.72-0.016C404.437,18.12,404.672,18.066,403.116,18.039z
	 M394.851,11.854c0.004-0.16,0.007-0.32,0.011-0.479c0.741,0.018,1.23,0.108,1.674,0.277c-0.002,0.08-0.003,0.16-0.005,0.24
	C395.971,11.879,395.411,11.867,394.851,11.854z M375.692,9.75c-0.174,0.132-0.018,0.346-0.485,0.229
	c0.001-0.08,0.003-0.16,0.005-0.24c-0.188-0.25-0.084-0.068-0.229-0.485c0.557,0.083,0.592,0.122,0.955,0.261
	C375.714,9.771,375.956,9.536,375.692,9.75z M373.533,9.702c-0.173-0.213-0.296-0.277-0.469-0.49c0.32,0.007,0.64,0.014,0.959,0.021
	c-0.003,0.16-0.007,0.32-0.01,0.48C373.853,9.709,373.693,9.706,373.533,9.702z M370.665,9.159c0.16,0.003,0.32,0.007,0.479,0.011
	c-0.001,0.08-0.003,0.16-0.005,0.24C370.722,9.249,370.907,9.358,370.665,9.159z M366.351,8.823c0.496,0.1,0.46,0.068,0.715,0.256
	C366.569,8.979,366.605,9.011,366.351,8.823z M357.148,12.46c0.496,0.1,0.46,0.068,0.715,0.256
	C357.367,12.616,357.402,12.648,357.148,12.46z M357.462,9.106c0.424-0.142,0.234-0.041,0.485-0.229
	c0.474,0.346,0.488,0.334,0.698,0.976c-0.24-0.005-0.479-0.011-0.72-0.016C357.771,9.593,357.617,9.35,357.462,9.106z
	 M360.737,13.02c-0.418-0.161-0.232-0.052-0.475-0.251c0.16,0.004,0.32,0.007,0.479,0.011C360.74,12.86,360.738,12.94,360.737,13.02
	z M359.308,12.508c0.496,0.1,0.46,0.068,0.714,0.256C359.526,12.664,359.562,12.696,359.308,12.508z M360.566,9.896
	c-0.08-0.002-0.16-0.004-0.24-0.005c-0.335,0.546-0.302,0.431-0.491,0.469c-0.186-0.24-0.332-0.666-0.458-0.971
	c0.398,0.089,0.796,0.178,1.194,0.267C360.569,9.735,360.567,9.815,360.566,9.896z M360.465,14.454
	c-0.493-0.326-1.761-0.181-1.915-0.282c-0.188-0.25-0.083-0.068-0.229-0.485c0.662,0.227,2.21,0.304,2.869,0.544
	c-0.002,0.08-0.004,0.16-0.005,0.24C360.945,14.465,360.705,14.459,360.465,14.454z M363.163,11.874
	c-0.199,0.241-0.087,0.063-0.25,0.474c-0.214-0.228-0.31-0.428-0.464-0.73C362.944,11.718,362.909,11.686,363.163,11.874z
	 M361.222,12.791c0.424-0.142,0.234-0.041,0.485-0.229c0.491,0.103,1.101,0.252,1.429,0.512
	C362.394,13.079,361.616,13.073,361.222,12.791z M361.227,12.551c-0.002,0.08-0.003,0.16-0.005,0.24
	c-0.417-0.161-0.232-0.051-0.475-0.25C360.907,12.543,361.067,12.547,361.227,12.551z M358.913,8.658
	c-0.136,0.018-1.43-0.151-1.909-0.522c0.974-0.002,2.004,0.061,2.634,0.298c-0.001,0.08-0.003,0.16-0.005,0.24
	C359.393,8.669,359.153,8.664,358.913,8.658z M356.796,6.691c0.188,0.25,0.083,0.068,0.229,0.485c-0.08-0.002-0.16-0.003-0.24-0.005
	C356.789,7.011,356.792,6.851,356.796,6.691z M356.146,14.358c0.003-0.16,0.007-0.32,0.01-0.479
	c0.188,0.249,0.084,0.067,0.229,0.485C356.306,14.362,356.226,14.36,356.146,14.358z M356.044,8.115
	c0.496,0.101,0.46,0.068,0.714,0.256C356.262,8.271,356.298,8.302,356.044,8.115z M354.061,10.952
	c-0.16-0.003-0.32-0.007-0.48-0.011c0.002-0.08,0.004-0.16,0.005-0.24c0.501-0.693,0.721-1.678,1.002-1.898
	c0.002-0.08,0.003-0.16,0.005-0.24c0.24,0.005,0.48,0.01,0.72,0.016c-0.005,0.24-0.011,0.48-0.016,0.72
	C354.604,9.677,354.322,10.132,354.061,10.952z M354.391,6.878c0.259,0.404,0.419,0.266-0.011,0.48
	C354.384,7.198,354.387,7.038,354.391,6.878z M352.471,6.835c0.16,0.003,0.32,0.007,0.48,0.011c-0.001,0.08-0.003,0.16-0.005,0.24
	C352.528,6.925,352.714,7.035,352.471,6.835z M352.829,12.365c-0.16-0.003-0.32-0.007-0.48-0.011c0.004-0.16,0.007-0.32,0.011-0.48
	c0.16,0.003,0.32,0.007,0.48,0.011C352.836,12.045,352.833,12.205,352.829,12.365z M351.751,6.819c0.16,0.004,0.32,0.007,0.48,0.011
	c-0.002,0.08-0.003,0.16-0.005,0.24C351.809,6.909,351.994,7.019,351.751,6.819z M349.944,12.541
	c0.603,0.363,0.272-0.046,0.464,0.73c-0.16-0.004-0.32-0.007-0.48-0.011C349.934,13.021,349.939,12.781,349.944,12.541z
	 M345.684,9.806c0.007-0.32,0.014-0.64,0.021-0.959c0.08,0.002,0.16,0.003,0.24,0.005c-0.002,0.08-0.003,0.16-0.005,0.24
	c0.214,0.229,0.31,0.428,0.464,0.73C346.164,9.816,345.924,9.811,345.684,9.806z M343.482,11.678
	c-0.16-0.004-0.32-0.007-0.479-0.011c0.003-0.16,0.007-0.32,0.01-0.48c0.16,0.003,0.32,0.007,0.48,0.011
	C343.489,11.357,343.486,11.518,343.482,11.678z M344.959,10.03c-0.57-0.29-0.406-0.499-0.955-0.261
	c-0.617,0.593-0.403,0.962-0.986,1.179c-0.527-1.65-1.597-0.949-2.591-2.218c0.862,0.119,2.08,0.172,2.89-0.416
	c0.613,0.22,1.605,0.924,1.888,1.482c-0.08-0.002-0.16-0.004-0.24-0.005C344.962,9.87,344.96,9.95,344.959,10.03z M341.408,7.791
	c0.16,0.004,0.32,0.007,0.48,0.011c-0.002,0.08-0.004,0.16-0.005,0.24C341.464,7.881,341.65,7.99,341.408,7.791z M339.488,7.748
	c-0.558-0.059-0.677-0.061-0.955-0.261C339.091,7.546,339.21,7.548,339.488,7.748z M340.229,6.804
	c-0.412,0.236-0.757,0.203-1.685,0.203c0.001-0.08,0.003-0.16,0.005-0.24c0.08,0.002,0.16,0.003,0.24,0.005
	c0.182-0.205,0.308-0.264,0.49-0.469c0.398,0.089,0.796,0.178,1.195,0.267C340.25,6.825,340.493,6.59,340.229,6.804z M336.859,7.21
	c0.188,0.249,0.083,0.067,0.229,0.485c-0.08-0.001-0.16-0.003-0.24-0.005C336.852,7.53,336.856,7.37,336.859,7.21z M333.676,10.02
	c0.16,0.003,0.32,0.007,0.48,0.011c-0.002,0.08-0.003,0.16-0.005,0.24C333.733,10.11,333.919,10.219,333.676,10.02z M329.682,6.091
	c0.004-0.16,0.007-0.32,0.011-0.48c0.5-0.078,0.463-0.048,0.725-0.224c0.585,0.324,0.166-0.099,0.469,0.491
	c-0.16-0.003-0.32-0.007-0.479-0.011C330.146,6.042,330.177,6.006,329.682,6.091z M329.059,12.559
	c-0.174,0.132-0.018,0.346-0.485,0.229c0.002-0.08,0.004-0.16,0.005-0.24c-0.417-0.161-0.232-0.051-0.475-0.25
	c0.4,0.009,0.8,0.018,1.2,0.026c-0.002,0.08-0.003,0.16-0.005,0.24C329.219,12.562,329.139,12.56,329.059,12.559z M327.971,7.493
	c0.16,0.003,0.32,0.007,0.48,0.011c-0.002,0.08-0.003,0.16-0.005,0.24C328.028,7.583,328.213,7.692,327.971,7.493z M321.668,10.234
	c0.16,0.003,0.32,0.007,0.48,0.011C321.855,10.625,322.042,10.537,321.668,10.234z M320.208,11.162
	c-0.426-0.663-0.228-0.334-1.194-0.266c0.004-0.16,0.007-0.32,0.011-0.48c0.869-0.126,1,0.043,1.45-0.448
	c0.24,0.005,0.48,0.011,0.72,0.016c0.142,0.424,0.042,0.234,0.229,0.485c-0.161,0.418-0.051,0.232-0.25,0.475
	C320.886,11.13,320.765,11.12,320.208,11.162z M318.411,5.601c0.188,0.25,0.083,0.068,0.229,0.485
	c-0.08-0.002-0.16-0.004-0.24-0.005C318.403,5.921,318.407,5.761,318.411,5.601z M318.23,13.759c-0.002,0.08-0.004,0.16-0.005,0.24
	c-0.856-0.125-0.674,0.136-0.709-0.496C317.753,13.588,317.992,13.674,318.23,13.759z M317.03,13.732
	c-0.002,0.08-0.004,0.16-0.005,0.24c-0.56-0.013-1.12-0.025-1.68-0.037c0.003-0.16,0.007-0.32,0.011-0.48
	C316.097,13.473,316.585,13.564,317.03,13.732z M315.846,12.986c-0.568-0.215-0.393-0.105-0.709-0.496
	C315.912,12.706,315.506,12.381,315.846,12.986z M318.528,11.125c-0.8-0.018-1.6-0.035-2.399-0.053
	c-1.262,0.762-2.703-0.279-3.359-0.074c-0.125,0.039,0.061,0.429-1.21,0.453c0.004-0.16,0.007-0.32,0.011-0.479
	c0.707-0.06,0.647-0.355,0.971-0.459c1.116-0.356,3.108,1.007,3.844-0.155c0.917,0.016,1.502,0.137,2.154,0.288
	C318.535,10.805,318.532,10.965,318.528,11.125z M312.002,13.141c-0.08-0.002-0.16-0.003-0.24-0.005
	c0.003-0.16,0.007-0.32,0.01-0.48C311.96,12.905,311.856,12.724,312.002,13.141z M312.701,14.117c-0.72-0.016-1.44-0.032-2.16-0.048
	c-0.576,0.417-1.65,0.143-1.919-0.042c-0.08-0.001-0.16-0.003-0.24-0.005c0.002-0.081,0.004-0.16,0.005-0.24
	c0.424-0.142,0.234-0.041,0.485-0.229c2.103,0.122,1.974,0.144,3.839,0.085C312.708,13.797,312.704,13.957,312.701,14.117z
	 M308.915,11.632c0.003-0.16,0.007-0.32,0.011-0.48c0.757,0.119,0.771,0.036,1.434,0.272c-0.001,0.08-0.003,0.16-0.005,0.24
	C309.875,11.654,309.395,11.643,308.915,11.632z M309.234,8.039c0.16,0.003,0.32,0.007,0.479,0.011
	c-0.001,0.08-0.003,0.16-0.005,0.24C309.292,8.128,309.477,8.238,309.234,8.039z M308.451,10.902
	c0.175,0.261,0.139,0.23,0.224,0.725c-0.08-0.001-0.16-0.003-0.24-0.005C308.44,11.382,308.445,11.142,308.451,10.902z
	 M306.712,13.504c0.16,0.004,0.32,0.007,0.48,0.011c-0.003,0.16-0.007,0.32-0.01,0.48C306.53,13.804,306.74,14.158,306.712,13.504z
	 M304.723,5.778c-0.281-0.214-0.266-0.204-0.469-0.491c0.424-0.142,0.234-0.041,0.485-0.229c0.318,0.087,0.636,0.174,0.954,0.261
	c-0.003,0.16-0.007,0.32-0.01,0.48C304.953,5.801,305.021,5.966,304.723,5.778z M302.537,6.93c0.003-0.16,0.007-0.32,0.011-0.48
	c0.188,0.249,0.083,0.068,0.229,0.485C302.697,6.934,302.617,6.932,302.537,6.93z M302.809,5.496
	c-0.173-0.213-0.296-0.277-0.469-0.49c0.557,0.083,0.592,0.121,0.954,0.261c-0.001,0.081-0.003,0.16-0.005,0.24
	C303.129,5.503,302.969,5.499,302.809,5.496z M300.927,3.773c-0.262,0.175-0.23,0.139-0.725,0.224
	c-0.075-0.242-0.149-0.483-0.224-0.725c0.4,0.009,0.8,0.018,1.2,0.027c-0.004,0.16-0.007,0.32-0.011,0.479
	C301.086,3.777,301.006,3.775,300.927,3.773z M299.258,14.059c0.004-0.16,0.007-0.32,0.011-0.48c0.188,0.25,0.084,0.068,0.229,0.485
	C299.418,14.063,299.338,14.061,299.258,14.059z M299.194,6.136c0.238,0.085,0.477,0.171,0.714,0.256
	c-0.001,0.08-0.003,0.16-0.005,0.24C299.334,6.417,299.51,6.527,299.194,6.136z M297.77,5.384c0.663-0.426,0.335-0.228,0.267-1.194
	c0.238,0.085,0.477,0.17,0.714,0.256c0.008,1,0.145,1.109,0.443,1.69c-0.16-0.003-0.32-0.007-0.48-0.011
	C298.439,5.843,298.043,5.669,297.77,5.384z M297.158,11.372c0.003-0.16,0.007-0.32,0.01-0.48c0.16,0.003,0.32,0.007,0.48,0.011
	c-0.003,0.16-0.007,0.32-0.011,0.48C297.478,11.379,297.317,11.375,297.158,11.372z M295.142,4.846
	c-0.237-0.706-0.424-0.572-0.693-1.215c0.24,0.005,0.48,0.01,0.72,0.016c0.219,0.224,0.414,0.329,0.709,0.496
	c-0.005,0.24-0.011,0.48-0.016,0.72C295.621,4.856,295.381,4.851,295.142,4.846z M294.273,11.548c-0.08-0.002-0.16-0.003-0.24-0.005
	c0.053-0.626,0.122-0.812,0.267-1.194c0.16,0.003,0.32,0.007,0.48,0.011C294.61,10.755,294.442,11.152,294.273,11.548z
	 M292.833,11.516c0.16,0.004,0.32,0.007,0.48,0.011c-0.002,0.08-0.003,0.16-0.005,0.24C292.89,11.606,293.076,11.715,292.833,11.516
	z M291.841,2.132c0.685,0.032,1.024,0.117,1.434,0.272c-0.001,0.08-0.003,0.16-0.005,0.24C292.19,2.646,292.401,2.929,291.841,2.132
	z M292.534,3.348c-0.004,0.16-0.007,0.32-0.011,0.48c-0.16-0.003-0.32-0.007-0.48-0.011c0.003-0.16,0.007-0.32,0.011-0.48
	C292.214,3.341,292.374,3.344,292.534,3.348z M291.639,11.25c0.16,0.003,0.32,0.007,0.48,0.01c-0.002,0.08-0.003,0.16-0.005,0.24
	C291.696,11.34,291.881,11.449,291.639,11.25z M290.94,10.274c0.16,0.004,0.32,0.007,0.479,0.011c-0.001,0.08-0.003,0.16-0.005,0.24
	C290.997,10.364,291.183,10.473,290.94,10.274z M290.679,11.229c0.003-0.16,0.007-0.32,0.011-0.48
	c0.188,0.25,0.083,0.068,0.229,0.485C290.839,11.232,290.759,11.23,290.679,11.229z M290.22,10.258
	c0.16,0.003,0.32,0.007,0.48,0.011c-0.003,0.16-0.007,0.32-0.01,0.479C290.038,10.558,290.248,10.912,290.22,10.258z M290.156,2.335
	c-0.478-0.091-0.956-0.181-1.434-0.272c0.005-0.24,0.01-0.48,0.016-0.72c0.48,0.011,0.96,0.021,1.44,0.032
	c0.212,0.265-0.02,0.02,0.234,0.245c-0.161,0.417-0.051,0.232-0.25,0.475C290.159,2.175,290.158,2.255,290.156,2.335z
	 M287.038,13.068c-0.004,0.16-0.007,0.32-0.011,0.48c-0.651-0.191-0.442,0.163-0.469-0.491
	C286.717,13.062,286.877,13.065,287.038,13.068z M287.5,2.996c-0.261,0.175-0.23,0.14-0.725,0.224
	c-0.689-0.531-1.774-0.077-1.424-0.751c0.798,0.098,1.596,0.195,2.394,0.293c-0.001,0.08-0.003,0.16-0.005,0.24
	C287.661,3,287.581,2.998,287.5,2.996z M286.109,0.805c0.16,0.004,0.32,0.007,0.479,0.011
	C286.295,1.195,286.482,1.107,286.109,0.805z M283.709,0.752c-0.439,0.136-0.185-0.492-0.224-0.725
	C284.05,0.534,283.531,0.256,283.709,0.752z M282.286,0c0.188,0.25,0.083,0.068,0.229,0.485c-0.08-0.002-0.16-0.003-0.24-0.005
	C282.278,0.32,282.282,0.16,282.286,0z M271.67,13.208c0.496,0.1,0.461,0.068,0.715,0.256c-0.16-0.003-0.32-0.007-0.48-0.011
	C271.754,13.383,271.793,13.525,271.67,13.208z M267.896,21.047c-0.417-0.161-0.232-0.052-0.475-0.251
	c0.16,0.004,0.32,0.007,0.48,0.011C267.9,20.887,267.898,20.967,267.896,21.047z M266.963,19.826c-0.001,0.08-0.003,0.16-0.005,0.24
	c-0.417-0.161-0.232-0.052-0.475-0.251C266.643,19.819,266.803,19.822,266.963,19.826z M266.185,22.449
	c0.003-0.16,0.007-0.32,0.011-0.48c0.804,0.195,0.693-0.132,0.949,0.501C266.825,22.463,266.504,22.456,266.185,22.449z
	 M265.956,21.964c-0.16-0.003-0.32-0.007-0.48-0.011c0.003-0.16,0.007-0.32,0.01-0.479c0.16,0.003,0.32,0.007,0.48,0.01
	C265.962,21.644,265.959,21.804,265.956,21.964z M264.99,22.183c-0.002,0.08-0.003,0.16-0.005,0.24
	c-0.417-0.161-0.232-0.052-0.475-0.251c-0.417-0.161-0.232-0.051-0.475-0.25c0.56-0.035,0.679-0.031,0.965-0.219
	C265.291,22.085,265.152,21.829,264.99,22.183z M263.604,19.751c-0.25,0.188-0.068,0.083-0.485,0.229
	c-0.333,0.382-0.16,0.265-0.73,0.464c-0.641-0.715-0.484-0.144,0.021-0.96C263.035,19.537,263.222,19.606,263.604,19.751z
	 M261.199,19.938c-0.24-0.006-0.479-0.011-0.72-0.016c0.004-0.16,0.007-0.32,0.011-0.48
	C261.264,19.658,260.859,19.333,261.199,19.938z M257.286,23.212c0.005-0.24,0.011-0.48,0.016-0.72
	c0.175,0.261,0.14,0.23,0.224,0.725C257.446,23.216,257.366,23.214,257.286,23.212z M255.195,20.045
	c-0.16-0.004-0.32-0.007-0.48-0.011c-0.382-0.496-0.283,0.163-0.469-0.491c0.32,0.007,0.64,0.014,0.959,0.021
	C255.202,19.725,255.199,19.885,255.195,20.045z M253.996,20.019c-0.24-0.005-0.48-0.011-0.72-0.016
	c0.003-0.16,0.007-0.32,0.01-0.48C254.061,19.739,253.655,19.414,253.996,20.019z M269.149,18.674
	c0.031,0.821,0.196,1.045-0.032,1.439c-0.002,0.08-0.003,0.16-0.005,0.24c-0.597-0.116-1.005-0.129-1.194-0.267
	c-0.188-0.25-0.084-0.067-0.229-0.485c0.305-0.119,0.734-0.271,0.971-0.458c-0.08-0.002-0.16-0.003-0.24-0.005
	c0.002-0.08,0.003-0.16,0.005-0.24c-2.166,1.032-3.522,0.229-6.964,0.086c-0.223-0.888-0.139-0.848-1.178-0.986
	c-0.003,0.16-0.007,0.32-0.011,0.48c0.585,0.324,0.166-0.1,0.469,0.49c-1.348-0.415-1.492,0.491-2.661,0.901
	c0.005-0.24,0.011-0.48,0.016-0.72c-1.398-0.123-2.941,0.604-4.804,0.134c-1.341-0.339-2.285-0.569-3.343-0.794
	c-0.278-0.593-0.611-0.939-0.928-1.461c0.16,0.003,0.32,0.007,0.48,0.011c0.872,0.597,3.09,0.218,3.833,0.325
	c0.012-0.627-0.306-0.219,0.256-0.714c0.154-0.055,1.11-0.111,1.685-0.203c-0.003,0.16-0.007,0.32-0.011,0.48
	c-0.936-0.028-1.077-0.144-1.45,0.448c-0.065,0.231-0.19,0.087-0.005,0.24c1.444,1.239,4.063,0.583,5.513,0.362
	c0.002-0.08,0.004-0.16,0.005-0.24c-0.508-0.263-2.064-0.399-2.623-0.778c-0.204-0.315-0.202-0.597-0.213-1.205
	c2.461,0.35,5.498,0.586,8.627,0.671c-0.005,0.24-0.011,0.48-0.016,0.72C266.753,17.463,267.25,18.449,269.149,18.674z
	 M262.547,13.247c0.238,0.085,0.477,0.17,0.715,0.256c-0.002,0.08-0.004,0.16-0.005,0.24
	C262.688,13.527,262.864,13.637,262.547,13.247z M257.983,13.385c0.001-0.08,0.003-0.16,0.005-0.24
	c0.5-0.078,0.463-0.048,0.725-0.224c0.16,0.003,0.32,0.007,0.48,0.011c-0.004,0.16-0.007,0.32-0.011,0.48
	C258.783,13.403,258.383,13.394,257.983,13.385z M250.71,16.585c-0.074-0.241-0.149-0.483-0.224-0.725
	c0.478,0.091,0.956,0.182,1.434,0.272c-0.003,0.16-0.007,0.32-0.011,0.48C251.51,16.603,251.111,16.594,250.71,16.585z
	 M248.413,22.776c0.16,0.003,0.32,0.007,0.48,0.011c-0.002,0.08-0.004,0.16-0.005,0.24C248.47,22.866,248.656,22.975,248.413,22.776
	z M245.39,18.388c1.074-0.007,1.842,0.067,2.389,0.533c-1.661,0.12-2.225,0.746-3.354-0.314
	C244.984,18.572,245.104,18.575,245.39,18.388z M245.075,21.742c1.236,0.195,1.734,0.368,2.863,0.784
	c-0.002,0.08-0.003,0.16-0.005,0.24c-0.8-0.018-1.6-0.035-2.399-0.053C245.024,22.045,245.057,22.48,245.075,21.742z
	 M246.963,23.224l0.469,0.491C246.784,23.916,246.634,23.549,246.963,23.224z M245.502,24.152c0.424-0.142,0.234-0.041,0.485-0.229
	c0.499,0.093,1.541,0.253,1.909,0.522C246.992,24.515,246.25,24.71,245.502,24.152z M244.227,16.682
	c-0.188-0.249-0.084-0.067-0.229-0.485c0.551,0.065,2.885,0.04,3.114,0.309c0.467,0.571,0.935,1.141,1.402,1.711
	c-0.24-0.005-0.48-0.01-0.72-0.016C246.874,17.263,245.373,17.471,244.227,16.682z M245.928,15.759
	c0.16,0.004,0.32,0.007,0.48,0.011c-0.002,0.08-0.003,0.16-0.005,0.24C245.985,15.849,246.17,15.958,245.928,15.759z M243.635,21.71
	l0.47,0.49C243.457,22.402,243.307,22.036,243.635,21.71z M241.337,17.098c-0.406-0.423-0.66-0.374-0.938-0.981
	c0.875,0.259,1.749,0.519,2.624,0.778c-0.08-0.002-0.16-0.003-0.24-0.005C242.437,17.113,241.991,17.106,241.337,17.098z
	 M240.43,14.677c0.299,0.133,0.722,0.303,0.949,0.501c-0.32-0.007-0.64-0.014-0.959-0.021
	C240.423,14.997,240.427,14.837,240.43,14.677z M238.511,14.635c0.003-0.16,0.007-0.32,0.011-0.48
	c0.626,0.052,0.813,0.121,1.194,0.267c-0.002,0.08-0.003,0.16-0.005,0.24C239.311,14.652,238.911,14.644,238.511,14.635z
	 M239.428,16.575c-0.08-0.001-0.16-0.003-0.24-0.005c0.004-0.16,0.007-0.32,0.011-0.48
	C239.386,16.339,239.283,16.158,239.428,16.575z M242.153,23.598c-0.002,0.08-0.003,0.16-0.005,0.24
	c-1.071-0.069-0.916,0.124-0.949-0.501C241.517,23.423,241.835,23.51,242.153,23.598z M240.463,24.04
	c0.318,0.087,0.636,0.174,0.954,0.261c-0.001,0.08-0.003,0.16-0.005,0.24C240.663,24.392,240.83,24.478,240.463,24.04z
	 M240.617,17.082c-0.003,0.16-0.007,0.32-0.011,0.479c-0.08-0.001-0.16-0.003-0.24-0.005c-0.586-0.377-1.456-0.251-1.904-0.763
	C239.318,16.797,240.087,16.881,240.617,17.082z M239.274,23.534c0.16,0.003,0.32,0.007,0.48,0.011
	c-0.001,0.08-0.003,0.16-0.005,0.24C239.331,23.624,239.517,23.733,239.274,23.534z M239.876,18.026
	c-0.879-0.02-1.759-0.039-2.639-0.059c0.003-0.16,0.007-0.32,0.011-0.48c0.424-0.142,0.234-0.041,0.485-0.229
	c-0.585-0.323-0.166,0.1-0.469-0.49c1.179,0.181,1.437,0.706,2.618,1.018C239.88,17.866,239.878,17.946,239.876,18.026z
	 M234.891,15.515c0.188,0.25,0.083,0.068,0.229,0.485c-0.08-0.002-0.16-0.004-0.24-0.005
	C234.883,15.834,234.887,15.675,234.891,15.515z M234.977,22.479c0.005-0.24,0.01-0.48,0.016-0.72
	c0.175,0.262,0.139,0.23,0.224,0.725C235.136,22.482,235.056,22.48,234.977,22.479z M233.718,25.091
	c0.602,0.362,0.271-0.046,0.464,0.73c-0.08-0.001-0.16-0.003-0.24-0.005C233.868,25.575,233.793,25.333,233.718,25.091z
	 M231.783,25.769c-0.265-0.123-0.738-0.443-0.229-0.485C231.636,25.357,232.03,25.419,231.783,25.769z M230.604,24.782
	c0.16,0.003,0.32,0.007,0.479,0.011c-0.001,0.08-0.003,0.16-0.005,0.24C230.661,24.872,230.847,24.981,230.604,24.782z
	 M221.369,19.056c-0.924-0.275-1.695,0.084-2.389-0.533c0.56-0.035,0.679-0.031,0.965-0.219c0.592,0.162,1.018,0.063,1.674,0.277
	c-0.002,0.08-0.004,0.16-0.005,0.24c-0.08-0.002-0.16-0.003-0.24-0.005C221.373,18.896,221.371,18.977,221.369,19.056z
	 M225.843,22.996c0.16,0.004,0.32,0.007,0.479,0.011c-0.001,0.08-0.003,0.16-0.005,0.24C225.9,23.086,226.085,23.195,225.843,22.996
	z M225.128,22.74c0.16,0.004,0.32,0.007,0.479,0.011c-0.001,0.08-0.003,0.16-0.005,0.24
	C225.185,22.831,225.371,22.939,225.128,22.74z M210.779,20.262c0.16,0.003,0.32,0.007,0.48,0.011
	c0.558,0.299,4.492,0.158,5.29-0.363c4.414,0.579,7.946,0.219,11.997,0.266c-0.085,0.238-0.171,0.477-0.256,0.715
	c0.9,0.089,0.893,0.206,1.429,0.512c-0.085,0.238-0.17,0.476-0.256,0.714c-0.859,0.123-0.812,0.158-1.215,0.693
	c-1.466-0.539-3.413-0.77-5.263-0.837c0.085-0.238,0.171-0.477,0.256-0.714c-3.542-0.318-7.11-0.373-12.472-0.516
	C210.772,20.582,210.776,20.422,210.779,20.262z M232.683,17.626c-0.422,0.249-0.55,0.236-0.96-0.021
	c0.424-0.142,0.234-0.041,0.485-0.229c-0.584-0.363-1.081-0.785-1.669-0.517c0,0-0.955,0.083-0.485,0.229
	c0.08,0.002,0.16,0.004,0.24,0.005c0.319,0.31,0.417,0.337,0.949,0.501c-0.182,0.205-0.308,0.264-0.491,0.469
	c1.674,0.109,6.866,0.559,7.657,1.129c-2.761,0.089-4.658,0.278-6.958-0.154c-2.537-0.477-4.388,1.131-7.204,0.081
	c-1.529-0.571-3.056-1.498-5.967-1.573c-0.023,1.143-0.092,0.519,0.208,1.445c-0.4-0.009-0.799-0.018-1.2-0.027
	c-1.57,0.954-1.762-0.347-2.148-0.527c-0.824-0.385-1.46,0.788-2.65,0.421c-0.725-0.223-0.75-0.618-1.904-0.762
	c0.003-0.16,0.007-0.32,0.011-0.48c0.32,0.007,0.64,0.014,0.959,0.021c0.473,0.464,1.05,0.64,1.904,0.762
	c0.142-0.381,0.205-0.572,0.267-1.194c-0.16-0.003-0.32-0.007-0.48-0.011c-0.327,0.107-2.542-0.18-2.64-0.058
	c-1.513,2.007-0.223,1.955-4.601,1.818c-1.41-0.916-3.255-0.801-4.521-1.78c-0.433-0.419-0.724-0.804-0.928-1.461
	c0.56,0.012,1.12,0.025,1.68,0.037c0.792-0.228,2.268,0.917,4.068,0.57c1.258-0.243,2.593,0.375,4.079,0.09
	c1.736-0.333,3.015-0.378,4.809-0.374c1.92,0.004,5.462,0.66,6.255-0.582c-0.32-0.007-0.64-0.014-0.96-0.021
	c-0.878-0.563-2.295-0.12-3.839-0.085c0.003-0.16,0.007-0.32,0.01-0.479c0.998-0.271,2.054-0.446,3.61-0.4
	c0.572-0.317,8.245,0.152,10.078,0.223c-0.005,0.24-0.011,0.48-0.016,0.72c1.815,0.282,2.003,0.358,3.599,0.08
	c-0.003,0.16-0.007,0.32-0.011,0.479C233.404,16.676,233.545,17.237,232.683,17.626z M208.913,17.82
	c0.078,0.63-0.185,0.31,0.469,0.49c0.002-0.08,0.003-0.16,0.005-0.24c0.08,0.002,0.16,0.003,0.24,0.005
	c0.002-0.08,0.004-0.16,0.005-0.24C209.393,17.831,209.153,17.826,208.913,17.82z M227.879,17.76
	c0.56-0.035,0.679-0.031,0.965-0.219c-0.318-0.087-0.636-0.174-0.955-0.261C227.886,17.44,227.883,17.6,227.879,17.76z
	 M228.38,16.811c0.411,0.268,0.539,0.26,0.959,0.021C229.02,16.825,228.7,16.818,228.38,16.811z M231.547,14.721
	c0.697,0.001,1.312,0.017,1.674,0.277C232.524,14.997,231.909,14.98,231.547,14.721z M204.653,15.085
	c1.175,0.064,3.326,0.328,4.084-0.15c0.4,0.009,0.8,0.018,1.2,0.026c0.233,0.326,0.466,0.651,0.699,0.976
	c-0.56-0.012-1.12-0.025-1.68-0.037C207.887,15.23,205.605,15.791,204.653,15.085z M200.723,19.079
	c-0.417-0.161-0.232-0.051-0.475-0.25c0.16,0.003,0.32,0.007,0.48,0.011C200.727,18.919,200.725,18.999,200.723,19.079z
	 M206.668,21.611c0.004-0.16,0.007-0.32,0.011-0.479C206.938,21.536,207.098,21.397,206.668,21.611z M200.334,25.792
	c-0.558-0.059-0.677-0.061-0.955-0.261C199.938,25.59,200.057,25.592,200.334,25.792z M198.479,22.871
	c0.001-0.08,0.003-0.16,0.005-0.24c0.5-0.078,0.463-0.048,0.725-0.224c0.16,0.003,0.32,0.007,0.48,0.01
	c-0.001,0.08-0.003,0.16-0.005,0.24c-0.08-0.002-0.16-0.003-0.24-0.005C199.157,22.838,199.036,22.828,198.479,22.871z
	 M195.396,21.122c-0.001,0.08-0.003,0.16-0.005,0.24c-0.417-0.161-0.232-0.051-0.475-0.25
	C195.077,21.115,195.237,21.118,195.396,21.122z M196.596,21.148c-0.001,0.08-0.003,0.16-0.005,0.24
	c-0.418-0.161-0.232-0.051-0.475-0.25C196.276,21.141,196.437,21.145,196.596,21.148z M198.767,20.716
	c1.659,0.866,4.508,0.847,7.182,0.879c0.467,0.661,1.265,0.769,1.648,1.477c-0.08-0.001-0.16-0.003-0.24-0.005
	c-1.879-1.38-7.675-0.685-11.747-0.74c-0.076-0.162-0.153-0.323-0.229-0.485C197.019,21.951,198.214,21.71,198.767,20.716z
	 M196.26,14.659c0.558,0.06,0.677,0.062,0.955,0.261C196.657,14.861,196.538,14.859,196.26,14.659z M188.571,14.969
	c0.003-0.16,0.007-0.32,0.01-0.48c1.102,0.059,1.595,0.019,2.395,0.293c-0.002,0.08-0.004,0.16-0.005,0.24
	C190.171,15.005,189.371,14.987,188.571,14.969z M184.695,16.564c-0.24-0.005-0.479-0.011-0.72-0.016
	c-0.173-0.213-0.296-0.277-0.469-0.49c0.626,0.052,0.813,0.121,1.194,0.266C184.699,16.404,184.697,16.484,184.695,16.564z
	 M184.727,15.124c-0.714,0.463-3.939,0.289-4.542-0.821c2.14,0.025,3.795-0.071,5.753,0.368c-0.003,0.16-0.007,0.32-0.01,0.48
	C185.527,15.142,185.126,15.133,184.727,15.124z M183.58,12.698c0.004-0.16,0.007-0.32,0.011-0.48c0.16,0.003,0.32,0.007,0.48,0.011
	c-0.003,0.16-0.007,0.32-0.011,0.48C183.9,12.706,183.74,12.702,183.58,12.698z M182.626,12.437c-1.155,0.7-4.727,0.389-6.25,0.342
	c0.004-0.16,0.007-0.32,0.011-0.48c0.927,0,1.022,0.017,1.45-0.448c1.65,0.135,3.635,0.061,5.034,0.352
	c-0.002,0.08-0.003,0.16-0.005,0.24C182.786,12.44,182.706,12.439,182.626,12.437z M176.083,15.173
	c-0.382-0.496-0.283,0.163-0.469-0.49c0.08,0.001,0.16,0.003,0.24,0.005c0.001-0.08,0.003-0.16,0.005-0.24
	c0.24,0.005,0.48,0.011,0.72,0.016C176.364,15.238,176.689,14.833,176.083,15.173z M172.783,12.459
	c0.002-0.08,0.004-0.16,0.005-0.24c0.08,0.001,0.16,0.003,0.24,0.005c0.182-0.206,0.308-0.264,0.49-0.469
	c0.569,0.214,0.393,0.105,0.709,0.496c0.08,0.002,0.16,0.004,0.24,0.005c-0.001,0.08-0.003,0.16-0.005,0.24
	C173.903,12.484,173.343,12.472,172.783,12.459z M166.726,14.966c0.916,0.041,1.288,0.016,1.674,0.277
	c0.08,0.002,0.16,0.003,0.24,0.005c-0.002,0.08-0.003,0.16-0.005,0.24C167.363,15.525,166.743,15.641,166.726,14.966z
	 M135.226,28.191c-0.08-0.001-0.16-0.003-0.24-0.005c0.004-0.16,0.007-0.32,0.011-0.479
	C135.184,27.956,135.08,27.774,135.226,28.191z M134.975,28.666c0.16,0.004,0.32,0.007,0.479,0.011
	c-0.001,0.08-0.003,0.16-0.005,0.24C135.032,28.756,135.217,28.865,134.975,28.666z M145.031,29.849
	c-0.542-0.514-0.426-0.498-0.213-1.205c1.206-0.027,1.983,0,2.383,0.773c-0.08-0.002-0.16-0.003-0.24-0.005
	C146.502,29.716,145.054,29.877,145.031,29.849z M146.273,27.956c0.003-0.16,0.007-0.32,0.011-0.48
	c0.481-0.069,0.963-0.139,1.445-0.208c-0.1,0.496-0.068,0.46-0.256,0.714C147.046,27.76,147.041,27.901,146.273,27.956z
	 M147.216,17.895c0.398,0.089,0.796,0.178,1.194,0.267c-0.001,0.08-0.003,0.16-0.005,0.24c-0.4-0.009-0.8-0.018-1.2-0.026
	C147.209,18.214,147.213,18.055,147.216,17.895z M148.443,27.524c0.16,0.004,0.32,0.007,0.48,0.011
	c-0.002,0.08-0.003,0.16-0.005,0.24C148.5,27.614,148.686,27.723,148.443,27.524z M145.122,25.77c0.999,0.04,1.64-0.019,2.17-0.432
	c1.336,0.223,2.231,0.47,2.842,1.744c-0.16-0.004-0.32-0.007-0.48-0.011c-0.563-0.322-3.529-0.672-4.543-0.821
	C145.114,26.09,145.118,25.93,145.122,25.77z M143.815,30.542c0.16,0.003,0.32,0.007,0.48,0.011
	C144.001,30.933,144.188,30.844,143.815,30.542z M135.454,17.874c0.32,0.007,0.64,0.014,0.959,0.021
	c0.527-0.262,7.243,0.229,9.353,0.447c0.002,0.798,0.093,1.089,0.203,1.685c-0.08-0.002-0.16-0.003-0.24-0.005
	c-1.98-1.244-7.817-0.162-10.046-1.663C135.496,18.11,135.6,18.292,135.454,17.874z M136.431,27.978
	c0.016-0.72,0.032-1.439,0.048-2.159c1.343,0.368,2.645,0.081,5.039,0.111c-0.103,0.792-0.36,1.512-0.517,1.669
	c0.241,0.199,0.064,0.087,0.475,0.25c0.513-0.278,0.538-0.104,1.2,0.027c-0.02,0.633-0.095,0.281,0.219,0.965
	c-0.4-0.009-0.8-0.018-1.2-0.026c-0.798,0.52-2.773,0.126-3.599-0.08c0.003-0.16,0.007-0.32,0.01-0.48
	c0.424-0.142,0.234-0.041,0.485-0.229C137.375,27.75,137.435,27.385,136.431,27.978z M140.776,26.874
	c-0.08-0.001-0.16-0.003-0.24-0.005c0.001-0.08,0.003-0.16,0.005-0.24c-0.16-0.003-0.32-0.007-0.48-0.011
	c-0.005,0.24-0.011,0.48-0.016,0.72C140.829,27.157,140.41,27.464,140.776,26.874z M140.019,28.538
	c0.085-0.238,0.17-0.476,0.256-0.714c-0.24-0.005-0.48-0.011-0.72-0.016c-0.38,0.35-0.445,0.176-0.736,0.704
	C139.219,28.52,139.619,28.529,140.019,28.538z M134.756,27.701c-0.004,0.16-0.007,0.32-0.011,0.48
	c-0.651-0.191-0.442,0.163-0.469-0.491C134.437,27.694,134.596,27.698,134.756,27.701z M138.146,15.533
	c-0.346,0.146-1.231,0.916-1.707,1.163c-0.734-2.067-2.251-0.104-2.842-1.744c0.56-0.034,0.679-0.031,0.965-0.218
	c3.479,0.419,6.598,0.051,8.622,0.911c-0.003,0.16-0.007,0.32-0.011,0.48C141.442,16.866,139.802,14.835,138.146,15.533z
	 M133.562,27.435c0.003-0.16,0.007-0.32,0.01-0.48C133.832,27.359,133.991,27.221,133.562,27.435z M131.348,18.983
	c-0.025-0.756-0.116-0.363,0.021-0.959c0.478,0.169,0.746,0.107,0.955,0.261c0.188,0.249,0.083,0.067,0.229,0.485
	C131.926,18.795,131.736,18.855,131.348,18.983z M116.931,19.625c-0.264-0.377-0.256-0.208-0.464-0.73
	c0.238,0.085,0.476,0.17,0.714,0.256c-0.003,0.16-0.007,0.32-0.011,0.48C117.091,19.628,117.011,19.626,116.931,19.625z
	 M128.725,18.205c-2.941-2.169-10.814-0.77-15.575-1.305c-0.05-0.902-0.167-0.901-0.448-1.45c1.324-0.659,3.975-0.421,6.009-0.347
	c1.767,0.964,10.753-1.074,11.485,1.694c-0.198,0.241-0.086,0.064-0.25,0.475C129.262,17.551,129.103,17.601,128.725,18.205z
	 M122.3,15.663c-0.083,0.158-0.167,0.316-0.25,0.475c0.08,0.001,0.16,0.003,0.24,0.005c0.029,0.338,0.235,0.245,0.235,0.245
	c0.005-0.24,0.01-0.48,0.016-0.72C122.459,15.666,122.379,15.664,122.3,15.663z M112.527,23.368c0.003-0.16,0.007-0.32,0.01-0.48
	c0.188,0.249,0.084,0.067,0.229,0.485C112.687,23.372,112.607,23.37,112.527,23.368z M109.316,16.575
	c0.396-0.292,0.493-0.494,0.741-0.944c0.828,0.633,0.63,0.635,0.208,1.445C109.966,16.944,109.544,16.773,109.316,16.575z
	 M108.602,16.319c0.259,0.404,0.419,0.266-0.01,0.48C108.595,16.639,108.598,16.479,108.602,16.319z M96.21,23.007
	c0.798,0.009,1.43,0.099,1.915,0.282c-0.003,0.16-0.007,0.32-0.011,0.48c-0.56-0.012-1.12-0.025-1.68-0.037
	c-0.211,0.093-3.025,0.087-3.594-0.32C94.024,23.476,95.489,23.489,96.21,23.007z M92.425,20.522
	c-0.142-0.424-0.041-0.234-0.229-0.485c0.083-0.158,0.167-0.316,0.25-0.475c0.732,0.159,7.188,0.229,8.414-0.534
	c0.858,0.125,1.028,0.225,1.424,0.751c0.08,0.002,0.16,0.003,0.24,0.005c-0.001,0.08-0.003,0.16-0.005,0.24
	c-1.2-0.026-2.399-0.053-3.599-0.08C96.956,21.135,94.205,19.826,92.425,20.522z M78.674,23.579c-0.08-0.002-0.16-0.003-0.24-0.005
	c-0.373,0.155-0.758,0.206-0.475-0.25C78.455,23.423,78.42,23.391,78.674,23.579z M76.653,28.095
	c-0.417-0.161-0.232-0.052-0.475-0.251c0.16,0.004,0.32,0.007,0.48,0.011C76.657,27.935,76.655,28.015,76.653,28.095z M105.008,16
	c-0.367,0.365-0.196,0.437-0.736,0.704c-0.816-0.511-3.162-0.832-4.553-0.341c-0.002,0.08-0.003,0.16-0.005,0.24
	c0.08,0.002,0.16,0.003,0.24,0.005c0.219,0.224,0.414,0.329,0.709,0.496c-0.004,0.16-0.007,0.32-0.011,0.48
	c-0.587,0.3-0.689,0.417-1.69,0.443c-1.712-1.125-4.025,0.294-6.004,0.107c-2.86-0.27-7.708-0.831-10.792-0.479
	c-0.647,0.074-1.413-0.85-2.389-0.533c-0.398,0.129-0.676,0.683-0.981,0.938c-0.468-0.573-1.445-0.911-2.133-1.248
	c-0.069-0.481-0.139-0.963-0.208-1.445c2.001-0.036,4.002-0.072,6.004-0.107c0.058,0.561,0.095,0.597,0.218,0.965
	c0.404-0.151,0.807-0.302,1.21-0.454c0.003-0.16,0.007-0.32,0.011-0.48c0.129-0.083,0.509,0.418,0.955,0.261
	c2.205-0.774,5.738-0.033,8.899-0.763c0.832-0.192,3.919,0.491,4.074,0.33c0.377-0.264,0.208-0.256,0.73-0.464
	c1.738,1.407,7.387-1.624,8.862,0.916C106.642,15.579,105.517,15.657,105.008,16z M67.29,28.128c0.16,0.003,0.32,0.007,0.48,0.011
	c-0.001,0.08-0.003,0.16-0.005,0.24C67.347,28.218,67.533,28.327,67.29,28.128z M64.853,18.952c0.319,0.007,0.64,0.014,0.959,0.021
	c-0.216,0.774,0.109,0.369-0.496,0.709C65.053,19.305,65.061,19.474,64.853,18.952z M3.657,18.077
	c-0.203-0.16-0.747-0.337-0.949-0.501c0.4,0.009,0.8,0.018,1.2,0.026c-0.003,0.16-0.007,0.32-0.01,0.48
	C3.817,18.08,3.737,18.079,3.657,18.077z"/>
</svg>
